<svg width="24" height="23" viewBox="0 0 24 23" fill="none" xmlns="http://www.w3.org/2000/svg">
<path d="M11.7379 20.4134C11.7379 19.1496 10.7135 18.1252 9.44996 18.1252C8.18614 18.1252 7.16168 19.1496 7.16168 20.4132C7.16168 21.677 8.18614 22.7015 9.44996 22.7015C10.7129 22.7001 11.7366 21.6766 11.7379 20.4134V20.4134ZM7.97333 20.4134C7.97333 19.5978 8.63425 18.9367 9.44996 18.9367C10.2654 18.9367 10.9264 19.5978 10.9264 20.4132C10.9264 21.2288 10.2654 21.8899 9.44996 21.8899C8.63472 21.889 7.9742 21.2284 7.97327 20.4134L7.97333 20.4134ZM17.9227 22.7015C19.1865 22.7016 20.211 21.6772 20.211 20.4134C20.2112 19.1496 19.1868 18.1252 17.9229 18.1252C16.659 18.1252 15.6347 19.1496 15.6347 20.4134C15.6364 21.6763 16.6597 22.6999 17.9228 22.7015H17.9227ZM17.9227 18.9367C18.7381 18.9367 19.3994 19.5978 19.3994 20.4132C19.3996 21.2286 18.7384 21.8899 17.9229 21.8899C17.1074 21.8899 16.4463 21.2288 16.4463 20.4134C16.4472 19.5984 17.1077 18.9379 17.9227 18.9367ZM0.40583 0.811609H2.88118C3.69567 0.808421 4.39016 1.40152 4.51427 2.20673L6.47368 14.5842C6.65873 15.7843 7.69408 16.6686 8.90845 16.6639H21.0203C21.1267 16.6621 21.2282 16.6185 21.3028 16.5426C21.3774 16.4667 21.4193 16.3645 21.4193 16.2581C21.4193 16.1516 21.3774 16.0494 21.3028 15.9735C21.2282 15.8976 21.1267 15.8541 21.0203 15.8523H8.90845C8.09397 15.8555 7.39948 15.2621 7.27536 14.4572L6.94226 12.3528H19.3468C20.3972 12.3523 21.3319 11.687 21.6761 10.6949L23.9775 4.05275C23.9988 3.9916 24.0052 3.92624 23.996 3.86214C23.9869 3.79803 23.9625 3.73705 23.925 3.68429C23.8874 3.63152 23.8378 3.58851 23.7803 3.55885C23.7227 3.52919 23.6589 3.51375 23.5941 3.5138H5.54279L5.31595 2.07972C5.13091 0.879551 4.09567 -0.00473453 2.88118 1.90737e-05H0.40583C0.299394 0.00181823 0.197926 0.0453626 0.123293 0.121268C0.0486592 0.197174 0.00683594 0.299363 0.00683594 0.405814C0.00683594 0.512265 0.0486592 0.614455 0.123293 0.69036C0.197926 0.766266 0.299394 0.80981 0.40583 0.811609ZM23.0239 4.32562L20.9094 10.4291C20.7967 10.7538 20.5857 11.0353 20.3057 11.2346C20.0257 11.4339 19.6905 11.5411 19.3468 11.5412H6.81362L5.6712 4.32539L23.0239 4.32562Z" fill="black"/>
</svg>
