<svg width="24" height="24" viewBox="0 0 24 24" fill="none" xmlns="http://www.w3.org/2000/svg">
<path d="M11.9998 23.3511C9.75471 23.3511 7.56004 22.6854 5.69332 21.4381C3.8266 20.1908 2.37167 18.418 1.51251 16.3438C0.653356 14.2696 0.428561 11.9872 0.866556 9.78525C1.30455 7.58331 2.38566 5.56069 3.97318 3.97318C5.56069 2.38566 7.58331 1.30455 9.78525 0.866556C11.9872 0.428561 14.2696 0.653356 16.3438 1.51251C18.418 2.37167 20.1908 3.8266 21.4381 5.69332C22.6854 7.56004 23.3511 9.75471 23.3511 11.9998C23.3477 15.0093 22.1507 17.8946 20.0226 20.0226C17.8946 22.1507 15.0093 23.3477 11.9998 23.3511ZM11.9998 1.29709C9.883 1.29709 7.81374 1.92479 6.05369 3.10082C4.29364 4.27685 2.92185 5.94838 2.11179 7.90405C1.30172 9.85971 1.08977 12.0117 1.50274 14.0878C1.91571 16.1639 2.93504 18.0709 4.43184 19.5677C5.92864 21.0645 7.83568 22.0839 9.9118 22.4968C11.9879 22.9098 14.1399 22.6979 16.0955 21.8878C18.0512 21.0777 19.7227 19.7059 20.8988 17.9459C22.0748 16.1858 22.7025 14.1166 22.7025 11.9998C22.6992 9.16226 21.5706 6.44188 19.5641 4.43544C17.5577 2.429 14.8373 1.30035 11.9998 1.29709Z" fill="#0D1E2F"/>
<path d="M11.9998 13.6217C11.2301 13.6217 10.4776 13.3934 9.83758 12.9658C9.19757 12.5381 8.69873 11.9303 8.40416 11.2191C8.1096 10.508 8.03252 9.72547 8.18269 8.97051C8.33286 8.21556 8.70353 7.52209 9.24782 6.9778C9.79211 6.43351 10.4856 6.06284 11.2405 5.91267C11.9955 5.7625 12.778 5.83958 13.4892 6.13414C14.2003 6.42871 14.8081 6.92755 15.2358 7.56756C15.6634 8.20758 15.8917 8.96004 15.8917 9.72978C15.8906 10.7616 15.4802 11.7509 14.7506 12.4805C14.0209 13.2102 13.0317 13.6206 11.9998 13.6217ZM11.9998 6.48654C11.3584 6.48654 10.7313 6.67675 10.198 7.03313C9.66461 7.3895 9.24891 7.89602 9.00344 8.48865C8.75796 9.08127 8.69374 9.73338 8.81888 10.3625C8.94402 10.9916 9.25291 11.5695 9.70648 12.0231C10.1601 12.4767 10.738 12.7856 11.3671 12.9107C11.9962 13.0359 12.6483 12.9716 13.2409 12.7261C13.8336 12.4807 14.3401 12.065 14.6965 11.5316C15.0528 10.9983 15.243 10.3712 15.243 9.72978C15.2421 8.86991 14.9001 8.04553 14.2921 7.43751C13.6841 6.82949 12.8597 6.48748 11.9998 6.48654Z" fill="#0D1E2F"/>
<path d="M19.4594 20.4321H18.8108C18.8108 18.6258 18.0932 16.8934 16.816 15.6161C15.5387 14.3389 13.8063 13.6213 12 13.6213C10.1936 13.6213 8.46129 14.3389 7.18402 15.6161C5.90674 16.8934 5.18918 18.6258 5.18918 20.4321H4.54053C4.54053 18.4537 5.32643 16.5564 6.72535 15.1575C8.12427 13.7586 10.0216 12.9727 12 12.9727C13.9784 12.9727 15.8757 13.7586 17.2746 15.1575C18.6735 16.5564 19.4594 18.4537 19.4594 20.4321Z" fill="#0D1E2F"/>
</svg>
