<svg width="125" height="125" viewBox="0 0 125 125" fill="none" xmlns="http://www.w3.org/2000/svg">
<path d="M62.5 125C97.0178 125 125 97.0178 125 62.5C125 27.9822 97.0178 0 62.5 0C27.9822 0 0 27.9822 0 62.5C0 97.0178 27.9822 125 62.5 125Z" fill="#FF6C52"/>
<path d="M125 62.5C125 59.4641 124.779 56.48 124.361 53.5598L95.4592 24.6582L64.2954 55.822L43.9023 35.429L23.2822 56.0491L47.9475 80.7144L28.3206 100.341L52.1155 124.136C55.5472 124.711 59.0207 125 62.5002 125C97.0181 125 125 97.0178 125 62.5Z" fill="#FF432E"/>
<path d="M28.3203 42.9114V100.342H35.6445L46.6309 95.8323L57.6172 100.342H62.5L73.4863 70.8628L62.5 42.9114H28.3203Z" fill="white"/>
<path d="M62.5 42.9114H96.6797V100.342H62.5V42.9114Z" fill="#E9EDF5"/>
<path d="M35.6445 63.7207H57.6172V100.342H35.6445V63.7207Z" fill="#8CC7FC"/>
<path d="M67.3828 63.7207H89.3555V85.6934H67.3828V63.7207Z" fill="#6CB1F8"/>
<path d="M22.2168 53.4668C22.2168 55.4893 23.8564 57.1289 25.8789 57.1289C27.9014 57.1289 29.541 55.4893 29.541 53.4668V40.8433L22.2168 44.1895V53.4668Z" fill="#FFAA00"/>
<path d="M29.541 40.8433V53.4668C29.541 55.4893 31.1807 57.1289 33.2031 57.1289C35.2256 57.1289 36.8652 55.4893 36.8652 53.4668V40.8433H29.541Z" fill="#8CC7FC"/>
<path d="M36.8652 40.8433V53.4668C36.8652 55.4893 38.5049 57.1289 40.5273 57.1289C42.5498 57.1289 44.1895 55.4893 44.1895 53.4668V40.8433H36.8652Z" fill="#FFAA00"/>
<path d="M44.1895 40.8433V53.4668C44.1895 55.4893 45.8291 57.1289 47.8516 57.1289C49.874 57.1289 51.5137 55.4893 51.5137 53.4668V40.8433H44.1895Z" fill="#8CC7FC"/>
<path d="M51.5137 40.8433V53.4668C51.5137 55.4893 53.1533 57.1289 55.1758 57.1289C57.1982 57.1289 58.8379 55.4893 58.8379 53.4668V40.8433H51.5137Z" fill="#FFAA00"/>
<path d="M58.8379 40.8433V53.4668C58.8379 55.4893 60.4775 57.1289 62.5 57.1289L64.3311 48.9861L62.5 40.8433H58.8379Z" fill="#8CC7FC"/>
<path d="M62.5 40.8433V57.1289C64.5225 57.1289 66.1621 55.4893 66.1621 53.4668V40.8433H62.5Z" fill="#6CB1F8"/>
<path d="M66.1621 40.8433V53.4668C66.1621 55.4893 67.8018 57.1289 69.8242 57.1289C71.8467 57.1289 73.4863 55.4893 73.4863 53.4668V40.8433H66.1621Z" fill="#FF9500"/>
<path d="M73.4863 40.8433V53.4668C73.4863 55.4893 75.126 57.1289 77.1484 57.1289C79.1709 57.1289 80.8105 55.4893 80.8105 53.4668V40.8433H73.4863Z" fill="#6CB1F8"/>
<path d="M80.8105 40.8433V53.4668C80.8105 55.4893 82.4502 57.1289 84.4727 57.1289C86.4951 57.1289 88.1348 55.4893 88.1348 53.4668V40.8433H80.8105Z" fill="#FF9500"/>
<path d="M88.1348 53.4668C88.1348 55.4893 89.7744 57.1289 91.7969 57.1289C93.8193 57.1289 95.459 55.4893 95.459 53.4668V40.8433H88.1348V53.4668Z" fill="#6CB1F8"/>
<path d="M95.459 53.4668C95.459 55.4893 97.0986 57.1289 99.1211 57.1289C101.144 57.1289 102.783 55.4893 102.783 53.4668V44.1895L95.459 40.8433V53.4668Z" fill="#FF9500"/>
<path d="M29.541 24.6582L22.2168 44.1895H62.5L70.2695 34.4238L62.5 24.6582H29.541Z" fill="#FCC515"/>
<path d="M95.459 24.6582H62.5V44.1895H102.783L95.459 24.6582Z" fill="#FFAA00"/>
<path d="M62.5 32.323H62.4907C59.511 32.2871 58.0649 34.4251 56.9231 36.742C55.3611 38.7886 56.9077 42.0769 59.5285 42.1299C60.6235 42.2949 61.5349 41.405 62.5 41.3482L64.3701 37.1216L62.5 32.323Z" fill="white"/>
<path d="M62.5 32.323H62.5093C65.489 32.2871 66.9351 34.4251 68.0769 36.742C69.6389 38.7886 68.0923 42.0769 65.4714 42.1299C64.3765 42.2949 63.4651 41.405 62.5 41.3482V32.323Z" fill="#E9EDF5"/>
<path d="M56.6403 34.5906C57.3614 34.3977 57.727 33.4228 57.4568 32.4133C57.1867 31.4037 56.3832 30.7416 55.6621 30.9346C54.941 31.1275 54.5754 32.1024 54.8456 33.112C55.1157 34.1216 55.9193 34.7836 56.6403 34.5906Z" fill="white"/>
<path d="M60.3114 31.5527C61.2037 31.4726 61.8296 30.3227 61.7094 28.9843C61.5893 27.6459 60.7686 26.6259 59.8763 26.706C58.9841 26.7861 58.3581 27.936 58.4783 29.2744C58.5985 30.6128 59.4192 31.6328 60.3114 31.5527Z" fill="white"/>
<path d="M66.4898 29.2751C66.6069 27.9364 65.9783 26.788 65.0859 26.7099C64.1935 26.6318 63.3751 27.6537 63.258 28.9924C63.1408 30.331 63.7694 31.4795 64.6618 31.5576C65.5542 31.6356 66.3726 30.6138 66.4898 29.2751Z" fill="#E9EDF5"/>
<path d="M70.1796 33.1212C70.4503 32.1118 70.0852 31.1367 69.3642 30.9434C68.6433 30.7501 67.8394 31.4117 67.5687 32.4211C67.298 33.4306 67.6631 34.4056 68.3841 34.5989C69.105 34.7923 69.9089 34.1307 70.1796 33.1212Z" fill="#E9EDF5"/>
</svg>
