<svg width="122" height="125" viewBox="0 0 122 125" fill="none" xmlns="http://www.w3.org/2000/svg">
<path d="M61.4998 5.36987C36.847 5.36987 15.6802 20.2856 6.52469 41.5837C-2.63083 62.8818 -1.7319 70.8618 9.74271 90.1489C21.2173 109.436 33.7906 118.011 41.2369 120.499C48.6831 122.986 57.9175 124.89 57.9175 124.89C59.1031 124.96 60.2967 125 61.4998 125C63.4068 125 65.2915 124.907 67.1529 124.732L89.9734 117.801C108.64 107.678 121.315 87.9119 121.315 65.1851C121.315 32.1499 94.5347 5.36987 61.4998 5.36987Z" fill="#FFC839"/>
<path d="M6.76807 79.9995C2.26709 71.5627 17.0486 59.6021 14.7883 51.6155C13.4573 46.9124 9.68286 43.6128 6.5249 41.5837C3.41187 48.8252 1.68506 56.803 1.68506 65.1851C1.68506 71.8376 2.77295 78.2354 4.77759 84.2129C5.34209 82.7638 6.00721 81.3559 6.76807 79.9995Z" fill="#8E5323"/>
<path d="M2.20898 57.2546C1.86005 59.8836 1.68503 62.5328 1.68506 65.1848C1.68506 71.8374 2.77295 78.2351 4.77759 84.2126C5.34219 82.7636 6.0073 81.3557 6.76807 79.9993C3.84839 74.5266 9.04126 67.5715 12.4343 61.1802C6.25342 64.175 3.30176 59.6951 2.20898 57.2546Z" fill="#794720"/>
<path d="M87.518 117.43C84.802 117.69 81.7197 116.988 80.2548 113.143C77.3911 105.625 78.0446 86.9907 76.7075 76.5784C75.342 78.3882 73.7885 80.187 72.0942 81.9556C71.947 92.5139 69.3742 106.794 71.7929 113.143C73.2578 116.988 76.34 117.934 79.0561 117.675C81.3295 117.458 83.3911 118.521 84.2954 120.499C86.2343 119.7 88.1297 118.799 89.9736 117.801C89.1979 117.477 88.3545 117.35 87.518 117.43Z" fill="#8E5323"/>
<path d="M70.915 100.249C73.2007 96.2424 76.0801 96.0864 77.9412 96.5496C77.5569 89.4722 77.3957 81.9368 76.7078 76.5786C75.3423 78.3884 73.7888 80.1873 72.0945 81.9558C72.0161 87.5845 71.2485 94.27 70.915 100.249Z" fill="#794720"/>
<path d="M107.942 32.4666C108.622 32.1589 109.375 32.047 110.115 32.1433C110.711 32.2207 111.414 32.2962 112.193 32.2627C105.342 27.3826 112.556 21.6648 108.903 17.1953C107.344 15.2888 106.718 13.4656 106.523 11.9739C105.93 10.7586 105.227 9.19778 103.898 7.0635C101.526 3.25369 95.386 1.30642 90.7388 0.349148C86.8538 -0.451145 82.8123 0.135037 79.3064 1.99026C72.4839 5.60061 61.426 13.5562 57.2485 28.5611C56.8279 30.0695 56.0976 31.4738 55.1042 32.6843C54.1108 33.8949 52.8761 34.8853 51.4788 35.5923C46.7534 37.9842 39.8794 42.4915 37.8579 49.1778C35.1958 57.9822 11.9312 64.0423 4.49268 83.3374C8.41064 95.6524 16.2078 106.236 26.4492 113.655C28.1938 111.47 30.6772 109.394 34.1956 108.138C39.2397 106.336 49.4233 100.782 59.1963 93.541C60.3447 99.628 60.3901 106.286 60.3035 109.877C60.2683 111.336 60.7922 112.761 61.7976 113.819C63.7966 115.923 64.7356 119.111 65.1768 121.64C65.2841 122.26 65.5124 122.852 65.8487 123.384C66.185 123.915 66.6227 124.375 67.1367 124.737C73.1829 124.174 79.1072 122.688 84.7031 120.33C83.7612 118.447 81.7529 117.219 79.5444 117.43C76.8284 117.69 73.7461 116.988 72.2813 113.142C69.8626 106.793 72.4353 92.5137 72.5825 81.9554C76.9597 77.386 80.4133 72.6158 82.0469 67.9763C88.1504 50.6424 82.9624 42.5247 88.0691 35.4243C90.0989 32.6018 96.2478 31.4571 100.703 32.9219C103.848 33.9558 106.596 33.075 107.942 32.4666Z" fill="#A26330"/>
<path d="M72.5824 81.9558C72.7472 81.7837 72.9098 81.6113 73.0719 81.4387C73.0851 79.407 73.0048 77.5186 72.7694 75.8706C72.4489 73.6272 72.2687 71.7544 72.1825 70.1978C72.1479 69.5681 72.1575 68.9369 72.2111 68.3086C69.2277 70.1572 64.4042 73.9568 65.2843 78.8003C67.9064 93.2292 60.9904 117.99 73.4992 115.291C73.026 114.718 72.612 114.011 72.2812 113.143C69.8625 106.794 72.4352 92.5142 72.5824 81.9558Z" fill="#B5733C"/>
<path d="M50.9382 81.783C29.5178 76.5889 36.458 53.3062 37.6882 49.6599C34.345 58.209 11.7947 64.3965 4.49268 83.3374C8.41064 95.6523 16.2078 106.236 26.4492 113.655C28.1938 111.47 30.6772 109.394 34.1956 108.138C37.8142 106.845 44.0784 103.621 50.9382 99.2288V81.783Z" fill="#8E5323"/>
<path d="M101.872 28.4158C101.726 28.7048 101.701 29.04 101.802 29.3475C101.904 29.655 102.123 29.9096 102.412 30.0554L107.533 32.6394C107.68 32.5808 107.819 32.5225 107.942 32.4666C108.622 32.1589 109.375 32.047 110.115 32.1433C110.71 32.2207 111.414 32.2962 112.192 32.2627C112.182 32.2552 112.172 32.2473 112.161 32.2398L103.512 27.8755C103.223 27.7299 102.887 27.705 102.58 27.8064C102.273 27.9077 102.018 28.1269 101.872 28.4158Z" fill="#794720"/>
<path d="M113.053 16.9514C107.814 15.2676 107.592 14.1545 105.962 10.8164C105.955 12.4624 106.423 14.7605 108.414 17.1956C112.069 21.6672 104.846 27.3887 111.714 32.2703C113.783 32.2908 116.485 31.6462 119.156 28.0598C123.429 22.3225 119.889 19.1487 113.053 16.9514Z" fill="#B5733C"/>
<path d="M113.053 16.9514C107.814 15.2676 107.592 14.1545 105.962 10.8164C105.955 12.4624 106.423 14.7605 108.414 17.1956C109.263 18.2341 109.524 19.3403 109.513 20.4875C109.501 21.6348 111.733 25.24 117.053 22.9045C118.534 22.2542 119.688 21.8979 120.582 21.7214C119.565 19.6616 116.808 18.1584 113.053 16.9514Z" fill="#E29C6D"/>
<path d="M120.03 20.4095C119.422 19.7151 118.35 19.6538 117.693 20.3023C117.076 20.9114 116.683 21.7598 117.053 22.9043C117.485 24.2417 118.527 25.1546 119.768 25.7437C120.304 25.9983 120.94 25.7124 121.099 25.1402C121.615 23.2818 121.187 21.73 120.03 20.4095Z" fill="#633A1C"/>
<path d="M99.3812 13.2769C99.3812 13.0466 99.4219 12.8264 99.493 12.6204C99.0432 13.0798 98.5058 13.4445 97.9126 13.6926C97.7193 13.7737 97.7432 14.0554 97.9488 14.0972C98.5501 14.2197 99.3697 14.4368 100.085 14.802C99.8643 14.6139 99.687 14.3801 99.5655 14.1168C99.4439 13.8535 99.381 13.5669 99.3812 13.2769Z" fill="#A0612D"/>
<path d="M102.763 14.7065C103.547 13.9222 103.547 12.6506 102.763 11.8663C101.978 11.082 100.707 11.082 99.9225 11.8663C99.1382 12.6506 99.1382 13.9222 99.9225 14.7065C100.707 15.4908 101.978 15.4907 102.763 14.7065Z" fill="#45304C"/>
<path d="M102.967 12.0818C102.832 12.0092 102.682 11.9708 102.529 11.9697C102.278 11.9697 102.038 12.0693 101.861 12.2465C101.684 12.4238 101.584 12.6641 101.584 12.9148C101.584 13.1654 101.684 13.4058 101.861 13.5831C102.038 13.7603 102.278 13.8599 102.529 13.8599C102.89 13.8599 103.2 13.655 103.359 13.3572C103.36 13.3303 103.364 13.304 103.364 13.2769C103.363 12.8461 103.224 12.427 102.967 12.0818Z" fill="#876D93"/>
<path d="M59.1975 93.5401C58.6248 90.5044 57.7776 87.6106 56.5344 85.3108C56.0494 84.415 55.5917 83.5046 55.1621 82.5808C54.4011 80.9419 52.2566 80.5472 50.9385 81.783C48.1521 84.3955 43.1714 87.9334 35.8989 88.9729L38.8865 106.1C44.3345 103.437 51.8804 98.962 59.1965 93.5411L59.1975 93.5401Z" fill="#CC8652"/>
<path d="M52.6162 116.012C48.7663 116.012 41.708 118.918 36.0149 117.446C34.6474 117.092 34.0019 115.525 34.7246 114.311L34.7248 114.311C34.9089 114.001 35.1333 113.72 35.382 113.46C43.2385 105.252 43.1357 90.0647 35.0019 82.8514C28.5688 77.1463 20.3244 78.7581 16.4233 80.0052C15.759 80.2176 15.7871 81.1634 16.4604 81.3455C20.5593 82.4536 28.7641 85.7649 28.7641 94.5159C28.7641 102.321 23.655 105.861 19.1289 107.403C29.1723 117.482 42.7888 123.996 57.9174 124.89C58.1692 122.664 56.3127 116.012 52.6162 116.012Z" fill="#8E5323"/>
<path d="M85.0988 35.262C76.4379 35.9595 73.8131 44.1297 76.1876 51.0498C77.8722 55.959 76.328 59.209 74.7111 61.0847C72.5465 63.5962 71.5116 66.8875 71.6945 70.1978C71.7806 71.7547 71.9608 73.6272 72.2814 75.8706C72.5368 77.658 72.6107 79.7259 72.5797 81.9551L72.5826 81.9558C76.9598 77.3865 80.4135 72.6162 82.047 67.9768C88.1281 50.7068 83.0021 42.5855 88.0143 35.5034C87.0621 35.2649 86.0773 35.1833 85.0988 35.262Z" fill="#CC8652"/>
<path d="M88.0141 35.5034C87.0619 35.2649 86.0771 35.1833 85.0986 35.2617C76.4377 35.9593 73.8129 44.1294 76.1875 51.0496C77.6225 55.2315 76.7141 58.2088 75.4143 60.1587C75.4143 60.1592 76.632 66.3667 83.3967 63.6558C87.3078 49.2971 83.4396 41.9666 88.0141 35.5034Z" fill="#E29C6D"/>
<path d="M81.6805 8.50147C78.8846 9.43336 76.4796 11.2747 74.8646 13.7398C70.8641 19.846 65.1693 31.9426 73.9901 42.1795C80.607 49.8584 87.5272 47.2725 92.0328 43.9375C94.9813 41.7551 95.7227 37.6631 93.7594 34.5647C88.1138 25.6553 86.3839 16.345 85.8563 11.2036C85.6478 9.17237 83.6173 7.85572 81.6805 8.50147Z" fill="#B87443"/>
<path d="M81.6805 8.50147C78.8846 9.43336 76.4796 11.2747 74.8646 13.7398C70.8641 19.846 65.1693 31.9426 73.9901 42.1795C80.607 49.8584 87.5272 47.2725 92.0328 43.9375C94.9813 41.7551 95.7227 37.6631 93.7594 34.5647C88.1138 25.6553 86.3839 16.345 85.8563 11.2036C85.6478 9.17237 83.6173 7.85572 81.6805 8.50147Z" fill="#CC8652"/>
<path d="M10.585 33.7847C13.73 38.053 20.1936 44.2781 29.9253 41.5837C41.6951 38.325 60.1685 17.0544 55.1812 5.70239C36.3232 7.68286 20.0771 18.4248 10.585 33.7847ZM116.895 42.5876C108.685 43.5037 94.5657 46.7976 92.5066 58.5945C89.887 73.6018 78.1855 106.809 98.3843 112.276C112.345 101.326 121.315 84.3037 121.315 65.1853C121.315 57.1882 119.742 49.5601 116.895 42.5876Z" fill="#FFDD40"/>
<path d="M87.9256 46.28C78.2376 39.3506 89.6529 28.5708 81.6844 25.8372C75.8009 23.8188 75.8673 16.46 76.6204 11.5986C75.9607 12.2478 75.372 12.9654 74.8646 13.7395C70.8641 19.8457 65.1693 31.9424 73.9901 42.1792C78.827 47.7927 83.826 47.9202 87.9256 46.28Z" fill="#B5733C"/>
<path d="M52.6164 116.012C51.2287 116.012 49.4228 116.39 47.4154 116.804C46.2616 118.155 44.8134 120.616 46.6254 123.129C50.3245 124.076 54.1058 124.665 57.9174 124.89C58.1693 122.664 56.3129 116.012 52.6164 116.012Z" fill="#A26330"/>
<path d="M120.186 22.1406C120.186 22.3578 120.1 22.5661 119.946 22.7196C119.793 22.8732 119.584 22.9595 119.367 22.9595C119.15 22.9595 118.942 22.8732 118.788 22.7196C118.635 22.5661 118.548 22.3578 118.548 22.1406C118.548 21.9235 118.635 21.7152 118.788 21.5616C118.942 21.408 119.15 21.3218 119.367 21.3218C119.584 21.3218 119.793 21.408 119.946 21.5616C120.1 21.7152 120.186 21.9235 120.186 22.1406Z" fill="#794720"/>
<path d="M104.545 77.6929C104.737 76.5076 103.932 75.3912 102.747 75.1992C101.561 75.0072 100.445 75.8124 100.253 76.9977C100.061 78.183 100.866 79.2994 102.051 79.4914C103.237 79.6834 104.353 78.8781 104.545 77.6929Z" fill="#FCF6DE"/>
<path d="M105.218 92.0496C105.625 89.9377 104.242 87.8959 102.13 87.4892C100.018 87.0825 97.9766 88.4649 97.5699 90.5769C97.1632 92.6888 98.5456 94.7306 100.658 95.1373C102.769 95.544 104.811 94.1616 105.218 92.0496Z" fill="#FFF2BD"/>
<path d="M40.5483 25.471C41.3637 23.4808 40.4114 21.2064 38.4212 20.391C36.431 19.5756 34.1566 20.5279 33.3412 22.5181C32.5258 24.5083 33.4781 26.7827 35.4683 27.5981C37.4585 28.4135 39.7329 27.4612 40.5483 25.471Z" fill="#FFF2BD"/>
<path d="M25.9587 50.0669C25.9587 51.8672 24.4993 53.3267 22.699 53.3267C20.8987 53.3267 19.4395 51.8672 19.4395 50.0669C19.4395 48.2666 20.8989 46.8074 22.699 46.8074C24.4995 46.8074 25.9587 48.2666 25.9587 50.0669Z" fill="#FFDD40"/>
</svg>
