<svg width="125" height="125" viewBox="0 0 125 125" fill="none" xmlns="http://www.w3.org/2000/svg">
<path d="M125 62.5C125 97.0178 97.0178 125 62.5 125C27.9822 125 0 97.0178 0 62.5C0 27.9822 27.9822 0 62.5 0C97.0178 0 125 27.9822 125 62.5Z" fill="#F0FAA0"/>
<path d="M42.9688 81.2988V96.4355C42.9688 96.7593 42.8401 97.0698 42.6112 97.2987C42.3823 97.5276 42.0718 97.6562 41.748 97.6562H14.8926C14.5688 97.6562 14.2583 97.5276 14.0294 97.2987C13.8005 97.0698 13.6719 96.7593 13.6719 96.4355V81.2988C13.6719 80.9751 13.8005 80.6646 14.0294 80.4357C14.2583 80.2067 14.5688 80.0781 14.8926 80.0781H41.748C42.0718 80.0781 42.3823 80.2067 42.6112 80.4357C42.8401 80.6646 42.9688 80.9751 42.9688 81.2988ZM41.748 58.5938H14.8926C14.5688 58.5938 14.2583 58.7224 14.0294 58.9513C13.8005 59.1802 13.6719 59.4907 13.6719 59.8145V74.9512C13.6719 75.2749 13.8005 75.5854 14.0294 75.8143C14.2583 76.0433 14.5688 76.1719 14.8926 76.1719H41.748C42.0718 76.1719 42.3823 76.0433 42.6112 75.8143C42.8401 75.5854 42.9688 75.2749 42.9688 74.9512V59.8145C42.9688 59.4907 42.8401 59.1802 42.6112 58.9513C42.3823 58.7224 42.0718 58.5938 41.748 58.5938ZM74.9512 80.0781H48.0957C47.772 80.0781 47.4615 80.2067 47.2325 80.4357C47.0036 80.6646 46.875 80.9751 46.875 81.2988V96.4355C46.875 96.7593 47.0036 97.0698 47.2325 97.2987C47.4615 97.5276 47.772 97.6562 48.0957 97.6562H74.9512C75.2749 97.6562 75.5854 97.5276 75.8143 97.2987C76.0433 97.0698 76.1719 96.7593 76.1719 96.4355V81.2988C76.1719 80.9751 76.0433 80.6646 75.8143 80.4357C75.5854 80.2067 75.2749 80.0781 74.9512 80.0781ZM74.9512 58.5938H48.0957C47.772 58.5938 47.4615 58.7224 47.2325 58.9513C47.0036 59.1802 46.875 59.4907 46.875 59.8145V74.9512C46.875 75.2749 47.0036 75.5854 47.2325 75.8143C47.4615 76.0433 47.772 76.1719 48.0957 76.1719H74.9512C75.2749 76.1719 75.5854 76.0433 75.8143 75.8143C76.0433 75.5854 76.1719 75.2749 76.1719 74.9512V59.8145C76.1719 59.4907 76.0433 59.1802 75.8143 58.9513C75.5854 58.7224 75.2749 58.5938 74.9512 58.5938ZM110.107 80.0781H83.252C82.9282 80.0781 82.6177 80.2067 82.3888 80.4357C82.1599 80.6646 82.0312 80.9751 82.0312 81.2988V96.4355C82.0312 96.7593 82.1599 97.0698 82.3888 97.2987C82.6177 97.5276 82.9282 97.6562 83.252 97.6562H110.107C110.431 97.6562 110.742 97.5276 110.971 97.2987C111.2 97.0698 111.328 96.7593 111.328 96.4355V81.2988C111.328 80.9751 111.2 80.6646 110.971 80.4357C110.742 80.2067 110.431 80.0781 110.107 80.0781ZM110.107 58.5938H83.252C82.9282 58.5938 82.6177 58.7224 82.3888 58.9513C82.1599 59.1802 82.0312 59.4907 82.0312 59.8145V74.9512C82.0312 75.2749 82.1599 75.5854 82.3888 75.8143C82.6177 76.0433 82.9282 76.1719 83.252 76.1719H110.107C110.431 76.1719 110.742 76.0433 110.971 75.8143C111.2 75.5854 111.328 75.2749 111.328 74.9512V59.8145C111.328 59.4907 111.2 59.1802 110.971 58.9513C110.742 58.7224 110.431 58.5938 110.107 58.5938Z" fill="#EBF582"/>
<path d="M110.489 102.539C99.0239 116.265 81.7832 125 62.5002 125C43.2173 125 25.9766 116.265 14.5117 102.539H110.489Z" fill="#F2C230"/>
<path d="M101.318 6.10352V37.8418C101.318 38.1655 101.19 38.476 100.961 38.705C100.732 38.9339 100.421 39.0625 100.098 39.0625H63.4766C63.1528 39.0625 62.8423 38.9339 62.6134 38.705C62.3845 38.476 62.2559 38.1655 62.2559 37.8418V6.10352C62.2559 5.77977 62.3845 5.46927 62.6134 5.24035C62.8423 5.01142 63.1528 4.88281 63.4766 4.88281H100.098C100.421 4.88281 100.732 5.01142 100.961 5.24035C101.19 5.46927 101.318 5.77977 101.318 6.10352Z" fill="#D29650"/>
<path d="M108.643 64.0869L47.6074 73.2422V36.6211H108.643V64.0869Z" fill="#AA6432"/>
<path d="M73.2422 14.6484H62.2559V9.76562H73.2422C73.5659 9.76562 73.8764 9.89423 74.1054 10.1232C74.3343 10.3521 74.4629 10.6626 74.4629 10.9863V13.4277C74.4629 13.7515 74.3343 14.062 74.1054 14.2909C73.8764 14.5198 73.5659 14.6484 73.2422 14.6484Z" fill="#F7D139"/>
<path d="M97.656 109.253C97.656 110.601 96.563 111.694 95.2146 111.694H70.8005C69.4521 111.694 68.3591 110.601 68.3591 109.253C68.3591 107.905 69.4521 106.812 70.8005 106.812H95.2146C96.563 106.812 97.656 107.905 97.656 109.253ZM48.8279 106.812H18.4355C20.1778 108.546 22.0202 110.176 23.9534 111.694H48.8279C50.1763 111.694 51.2693 110.601 51.2693 109.253C51.2693 107.905 50.1763 106.812 48.8279 106.812Z" fill="#E3A600"/>
<path d="M70.8008 58.5938H47.6074V43.9453H70.8008C71.1245 43.9453 71.435 44.0739 71.6639 44.3028C71.8929 44.5318 72.0215 44.8423 72.0215 45.166V57.373C72.0215 57.6968 71.8929 58.0073 71.6639 58.2362C71.435 58.4651 71.1245 58.5938 70.8008 58.5938Z" fill="#FF6633"/>
<path d="M118.896 18.9209H32.4236L30.4446 11.0046C30.1494 9.82373 29.0393 9.06299 27.8645 9.16699C27.7888 9.15951 27.7128 9.1556 27.6367 9.15527H8.49609C7.1748 9.15527 6.10352 10.2483 6.10352 11.5967C6.10352 12.9451 7.17456 14.0381 8.49609 14.0381H26.1702L28.1316 21.8843L37.7368 72.5513L33.0845 86.5083C32.658 87.7874 33.3494 89.1699 34.6287 89.5964C34.8777 89.6798 35.1385 89.7223 35.4011 89.7224C36.4233 89.7224 37.376 89.0754 37.7168 88.0522L42.0293 75.1147L119.205 65.2881C119.795 65.2131 120.336 64.9257 120.729 64.4799C121.122 64.034 121.338 63.4603 121.338 62.8662V48.2476L121.338 21.3623C121.338 20.0139 120.245 18.9209 118.896 18.9209ZM33.4651 23.8037H52.7336L53.9609 35.4639L35.7769 35.9985L33.4651 23.8037ZM36.698 40.8564L54.4739 40.3337L55.6475 51.4819L38.9978 52.9863L36.698 40.8564ZM42.2539 70.1641L39.9111 57.8064L56.1584 56.3381L57.3865 68.0046C57.3945 68.0818 57.4065 68.158 57.4214 68.2327L42.2539 70.1641ZM57.6433 23.8037H76.9072C76.9072 23.8513 76.9055 23.8989 76.9084 23.947L77.5452 34.77L58.8557 35.3196L57.6433 23.8037ZM59.3682 40.1897L77.8318 39.6467L78.407 49.4253L60.5105 51.0425L59.3682 40.1897ZM62.249 67.6179C62.2468 67.5764 62.2466 67.5352 62.2422 67.4934L61.0217 55.8987L78.6938 54.3018L79.3491 65.4407L62.249 67.6179ZM81.7913 23.8037H98.877V34.1428L82.428 34.6265L81.7913 23.8037ZM82.7148 39.5029L98.877 39.0276V47.5752L83.2727 48.9853L82.7148 39.5029ZM84.2041 64.8225L83.5593 53.8623L98.877 52.478V62.8662C98.877 62.8957 98.8804 62.9243 98.8813 62.9536L84.2041 64.8225ZM116.455 60.7158L103.76 62.3323V52.0369L116.455 50.8896V60.7158ZM116.455 45.9871L103.76 47.1343V38.8843L116.455 38.511V45.9871ZM116.455 33.6257L103.76 33.999V23.8037H116.455V33.6257Z" fill="#414669"/>
<path d="M108.643 84.2285V89.1113C108.643 89.4351 108.514 89.7456 108.285 89.9745C108.056 90.2034 107.746 90.332 107.422 90.332H34.1797C33.8559 90.332 33.5454 90.2034 33.3165 89.9745C33.0876 89.7456 32.959 89.4351 32.959 89.1113V84.2285C32.959 83.9048 33.0876 83.5943 33.3165 83.3653C33.5454 83.1364 33.8559 83.0078 34.1797 83.0078H107.422C107.746 83.0078 108.056 83.1364 108.285 83.3653C108.514 83.5943 108.643 83.9048 108.643 84.2285ZM19.2261 7.32422H8.8501C6.32178 7.32422 4.27246 9.37378 4.27246 11.9019C4.27246 14.4299 6.32202 16.4795 8.8501 16.4795H19.2261C21.7542 16.4795 23.8037 14.4299 23.8037 11.9019C23.8037 9.37378 21.7542 7.32422 19.2261 7.32422Z" fill="#FF6633"/>
<path d="M98.877 83.6182V100.708C98.877 101.032 98.7483 101.342 98.5194 101.571C98.2905 101.8 97.98 101.929 97.6562 101.929H92.7734C92.4497 101.929 92.1392 101.8 91.9103 101.571C91.6813 101.342 91.5527 101.032 91.5527 100.708V83.6182C91.5527 83.2944 91.6813 82.9839 91.9103 82.755C92.1392 82.5261 92.4497 82.3975 92.7734 82.3975H97.6562C97.98 82.3975 98.2905 82.5261 98.5194 82.755C98.7483 82.9839 98.877 83.2944 98.877 83.6182ZM51.2695 82.3975H46.3867C46.063 82.3975 45.7525 82.5261 45.5236 82.755C45.2946 82.9839 45.166 83.2944 45.166 83.6182V100.708C45.166 101.032 45.2946 101.342 45.5236 101.571C45.7525 101.8 46.063 101.929 46.3867 101.929H51.2695C51.5933 101.929 51.9038 101.8 52.1327 101.571C52.3616 101.342 52.4902 101.032 52.4902 100.708V83.6182C52.4902 83.2944 52.3616 82.9839 52.1327 82.755C51.9038 82.5261 51.5933 82.3975 51.2695 82.3975Z" fill="#FF5019"/>
<path d="M103.76 103.149C103.76 107.869 99.9341 111.694 95.2148 111.694C90.4956 111.694 86.6699 107.869 86.6699 103.149C86.6699 98.4302 90.4956 94.6045 95.2148 94.6045C99.9341 94.6045 103.76 98.4302 103.76 103.149ZM48.8281 94.6045C44.1089 94.6045 40.2832 98.4302 40.2832 103.149C40.2832 107.869 44.1089 111.694 48.8281 111.694C53.5474 111.694 57.373 107.869 57.373 103.149C57.373 98.4302 53.5474 94.6045 48.8281 94.6045Z" fill="#501E0F"/>
<path d="M100.098 103.149C100.098 105.846 97.9116 108.032 95.2148 108.032C92.5181 108.032 90.332 105.846 90.332 103.149C90.332 100.453 92.5181 98.2666 95.2148 98.2666C97.9114 98.2666 100.098 100.453 100.098 103.149ZM48.8281 98.2666C46.1313 98.2666 43.9453 100.453 43.9453 103.149C43.9453 105.846 46.1313 108.032 48.8281 108.032C51.5249 108.032 53.7109 105.846 53.7109 103.149C53.7109 100.453 51.5247 98.2666 48.8281 98.2666Z" fill="#B9783D"/>
</svg>
