<svg width="125" height="125" viewBox="0 0 125 125" fill="none" xmlns="http://www.w3.org/2000/svg">
<path d="M125 62.5C125 82.2158 115.871 99.7939 101.609 111.249H23.3909C9.12939 99.7939 0 82.2158 0 62.5C0 27.9822 27.9822 0 62.5 0C97.0178 0 125 27.9822 125 62.5Z" fill="#8CC7FC"/>
<path d="M78.6716 17.1807L67.6826 28.1697L66.2878 26.7749L42.0479 51.0149L56.146 65.113L52.7405 68.5186L95.4709 111.249H101.609C115.63 99.9873 124.684 82.8057 124.986 63.4946L78.6716 17.1807Z" fill="#6CB1F8"/>
<path d="M50.5796 62.2129V86.0539H62.5L66.6758 74.1333L62.5 62.2129H50.5796Z" fill="#FCBEAC"/>
<path d="M62.5 62.2129H74.4204V86.0537H62.5V62.2129Z" fill="#F7A690"/>
<path d="M35.9194 75.6399C34.6279 75.6399 33.3811 75.8357 32.2087 76.1987C27.1011 77.78 23.3906 82.5403 23.3906 88.1677V96.0911L62.4998 125L67.7617 100.32L62.4998 85.1621L50.5793 75.6399H35.9194Z" fill="#555A65"/>
<path d="M92.791 76.1987C91.5892 75.8272 90.3383 75.6388 89.0803 75.6399H74.4204L62.5 85.1621V125L101.609 96.0908V88.1675C101.609 82.5403 97.8987 77.78 92.791 76.1987Z" fill="#333940"/>
<path d="M38.0857 96.0908H23.3906V111.249C27.5145 114.562 32.0421 117.338 36.865 119.512L38.0857 96.0908Z" fill="#FDCDBF"/>
<path d="M88.1348 119.512C92.9576 117.339 97.4852 114.562 101.609 111.249V96.0911H86.9141L88.1348 119.512Z" fill="#FCBEAC"/>
<path d="M62.4999 25.7236H53.1662C48.2951 25.7236 44.3466 30.4131 44.3466 36.1978V40.9788C43.6894 40.3809 42.9614 40.0874 42.2519 40.2126C40.4509 40.5303 39.4543 43.4155 40.0261 46.6572C40.5976 49.8989 42.5209 52.2695 44.3219 51.9519C44.3302 51.9504 44.3383 51.948 44.3466 51.9463V53.8318C44.3466 55.4304 44.871 56.9849 45.8393 58.2568L53.1886 67.9116C53.8703 68.8071 54.7495 69.5329 55.7578 70.0326C56.7662 70.5323 57.8763 70.7922 59.0016 70.7922H62.4999L65.6164 48.2578L62.4999 25.7236Z" fill="#FDCDBF"/>
<path d="M82.748 40.2126C82.0386 40.0876 81.3108 40.3809 80.6533 40.9788V36.1978C80.6533 30.4131 76.7046 25.7236 71.8337 25.7236H62.5V70.7922H65.9985C67.1239 70.7923 68.234 70.5323 69.2424 70.0326C70.2507 69.533 71.1299 68.8071 71.8115 67.9116L79.1609 58.2568C80.1292 56.9849 80.6535 55.4304 80.6536 53.8318V51.9463C80.6619 51.9478 80.6699 51.9504 80.6782 51.9519C82.4792 52.2695 84.4026 49.8989 84.9741 46.6572C85.5457 43.4155 84.5488 40.53 82.748 40.2126Z" fill="#FCBEAC"/>
<path d="M36.8652 88.8242V119.512C44.7644 123.121 53.248 125 62.5 125L66.6758 112.003L62.5 99.2292L57.238 88.8242H36.8652Z" fill="#FB9F4C"/>
<path d="M67.7617 88.8242L62.5 99.2292V125C71.636 125 80.3127 123.036 88.1348 119.512V88.8242H67.7617Z" fill="#E07A00"/>
<path d="M57.2383 88.8242V107.117L62.5002 103.744L64.7602 95.8738L62.5002 88.8242H57.2383Z" fill="#FDDF55"/>
<path d="M67.762 88.8242H62.5V103.744L67.762 107.117V88.8242Z" fill="#FCBE50"/>
<path d="M59.4485 11.8813C49.4897 11.8813 41.4165 19.437 41.4165 28.7576V34.5786H62.5L65.8147 23.23L62.5 12.0959L60.6272 11.8813H59.4485Z" fill="#FDDF55"/>
<path d="M83.5835 28.7576C83.5835 19.437 75.5103 11.8813 65.5515 11.8813H64.3613L62.5 12.0959V34.5784H83.5835V28.7576Z" fill="#FCBE50"/>
<path d="M60.6506 11.8813C54.615 11.8813 49.7222 19.437 49.7222 28.7576V34.5786H62.5L65.2134 23.5681L62.5 11.8813H60.6506Z" fill="#FCBE50"/>
<path d="M75.2778 28.7576C75.2778 19.437 70.385 11.8813 64.3494 11.8813H62.5V34.5784H75.2778V28.7576Z" fill="#FB9F4C"/>
<path d="M41.4165 34.5784V41.114C41.4165 43.6699 43.9209 45.6189 46.6846 45.2136C51.8498 43.8755 57.1642 43.199 62.5 43.2004L65.8147 36.8657L62.5 31.6489C57.3203 31.6489 49.8926 32.1672 41.4165 34.5784Z" fill="white"/>
<path d="M83.5835 41.114V34.5784C78.6375 33.1714 71.376 31.6489 62.5 31.6489V43.2007C66.5017 43.2007 72.022 43.5801 78.3154 45.2139C81.0789 45.6189 83.5835 43.6699 83.5835 41.114Z" fill="#E9EDF5"/>
</svg>
