<svg width="20" height="32" viewBox="0 0 20 32" fill="none" xmlns="http://www.w3.org/2000/svg">
<path d="M0.294635 17.1746C-0.522698 18.7813 0.405302 19.5493 2.52264 20.8613C4.32264 21.9733 6.8093 22.38 8.40664 22.5426C7.75197 23.172 10.752 20.2866 2.11197 28.5973C0.279968 30.3533 3.2293 33.1706 5.05997 31.452L10.016 26.672C11.9133 28.4973 13.732 30.2466 14.972 31.4586C16.804 33.184 19.752 30.3906 17.94 28.604C17.804 28.4746 11.224 22.1626 11.6253 22.5493C13.2426 22.3866 15.692 21.956 17.4706 20.868L17.4693 20.8666C19.5866 19.548 20.5146 18.7813 19.7093 17.1746C19.2226 16.2626 17.9106 15.5 16.164 16.8186C16.164 16.8186 13.8053 18.6253 10.0013 18.6253C6.19597 18.6253 3.83864 16.8186 3.83864 16.8186C2.0933 15.4933 0.775968 16.2626 0.294635 17.1746Z" fill="#006FD6"/>
<path d="M9.99858 16.1893C14.6359 16.1893 18.4226 12.5653 18.4226 8.104C18.4226 3.624 14.6359 0 9.99858 0C5.35991 0 1.57324 3.624 1.57324 8.104C1.57324 12.5653 5.35991 16.1893 9.99858 16.1893ZM9.99858 4.10533C12.2772 4.10533 14.1359 5.89333 14.1359 8.104C14.1359 10.296 12.2772 12.084 9.99858 12.084C7.71991 12.084 5.86124 10.296 5.86124 8.104C5.85991 5.892 7.71858 4.10533 9.99858 4.10533Z" fill="#006FD6"/>
</svg>
