<svg width="14" height="14" viewBox="0 0 14 14" fill="none" xmlns="http://www.w3.org/2000/svg">
<path fill-rule="evenodd" clip-rule="evenodd" d="M6.10894 11.2276C3.28193 11.2276 0.990234 8.93595 0.990234 6.10894C0.990234 3.28193 3.28193 0.990234 6.10894 0.990234C8.93595 0.990234 11.2276 3.28193 11.2276 6.10894C11.2276 7.31409 10.8112 8.42244 10.1142 9.29677C10.1435 9.31222 10.1718 9.33039 10.1987 9.35084C10.2198 9.36675 10.24 9.38447 10.2594 9.40401L13.813 12.9577C14.0493 13.194 14.0493 13.577 13.813 13.8133C13.5768 14.0492 13.1937 14.0492 12.9575 13.8133L9.4039 10.2597C9.35993 10.2156 9.32403 10.1665 9.29642 10.1143C8.42187 10.8114 7.31409 11.2276 6.10894 11.2276ZM10.297 6.10894C10.297 8.42199 8.42187 10.297 6.10894 10.297C3.796 10.297 1.92091 8.42199 1.92091 6.10894C1.92091 3.79589 3.796 1.92091 6.10894 1.92091C8.42187 1.92091 10.297 3.79589 10.297 6.10894Z" fill="#0D1E2F"/>
</svg>
