<svg width="60" height="60" viewBox="0 0 60 60" fill="none" xmlns="http://www.w3.org/2000/svg">
<path d="M14.8247 55.8843C5.95441 50.6727 0 41.0317 0 30C0 13.4314 13.4314 0 30 0C37.39 0 44.1558 2.67199 49.3842 7.10262L55.9215 14.8881C58.5143 19.3259 60 24.4895 60 30C60 41.0317 54.0456 50.6727 45.1753 55.8844L14.8247 55.8843Z" fill="#006FD6"/>
<path d="M45.1755 55.8843C54.0457 50.6727 60.0001 41.0317 60.0001 30C60.0001 24.4895 58.5143 19.3259 55.9217 14.8881L35.4792 11.1808L28.6729 7.79224L16.8784 15.0681L33.6565 31.8461V58.5632L45.1755 55.8843Z" fill="#0563BA"/>
<path d="M44.787 52.0369L42.8891 33.2298C42.4706 29.0828 38.9797 25.9265 34.8117 25.9265H25.1882C21.0202 25.9265 17.5293 29.0828 17.1109 33.2298L15.2129 52.0369L19.2615 54.7646C25.7525 59.1378 34.2473 59.1378 40.7383 54.7646L44.787 52.0369Z" fill="white"/>
<path d="M44.7872 52.0369L42.8892 33.2298C42.4707 29.0828 38.9798 25.9265 34.8118 25.9265H30.0142V58.0443C33.756 58.0416 37.4971 56.9485 40.7385 54.7647L44.7872 52.0369Z" fill="#E9EDF5"/>
<path d="M31.4542 45.9452H28.5462C26.3231 45.9452 24.521 44.1431 24.521 41.92V39.2835C24.521 36.2575 26.9741 33.8044 30.0001 33.8044C33.0261 33.8044 35.4792 36.2575 35.4792 39.2835V41.92C35.4793 44.143 33.6772 45.9452 31.4542 45.9452Z" fill="#DCE1EB"/>
<path d="M30.0142 33.8047V45.9452H31.454C33.6771 45.9452 35.4792 44.1431 35.4792 41.92V39.2836C35.4792 36.2621 33.0337 33.8123 30.0142 33.8047Z" fill="#BEC3D2"/>
<path d="M31.4538 45.945C32.3891 45.9465 33.2955 45.6208 34.0159 45.0244C33.0154 43.9468 31.5864 43.2725 29.9999 43.2725C28.4134 43.2725 26.9844 43.9468 25.9839 45.0244C26.7044 45.6208 27.6107 45.9464 28.546 45.945H31.4538Z" fill="#BEC3D2"/>
<path d="M34.0161 45.0246C33.0185 43.9502 31.595 43.2769 30.0142 43.2729V45.9451H31.454C32.3893 45.9465 33.2956 45.6209 34.0161 45.0246Z" fill="#9196AA"/>
<path d="M31.6902 35.3647H28.3094C26.9159 35.3647 25.9656 36.7755 26.4891 38.0669L26.6325 38.4204C26.9451 39.192 27.5133 39.8327 28.2419 40.2353V43.5608H31.7575V40.2353C32.4862 39.8327 33.0544 39.192 33.367 38.4204L33.5103 38.0669C34.034 36.7755 33.0838 35.3647 31.6902 35.3647Z" fill="#707789"/>
<path d="M31.6904 35.3647H30.0142V43.5608H31.7579V40.2354C32.4865 39.8328 33.0547 39.1921 33.3674 38.4205L33.5107 38.067C34.0343 36.7755 33.084 35.3647 31.6904 35.3647Z" fill="#555A66"/>
<path d="M23.9679 35.3208C23.1667 35.3208 22.5171 34.6712 22.5171 33.87V32.9537C22.5171 32.1525 23.1667 31.5029 23.9679 31.5029C24.7691 31.5029 25.4187 32.1525 25.4187 32.9537V33.87C25.4187 34.6712 24.7691 35.3208 23.9679 35.3208Z" fill="#707789"/>
<path d="M36.0323 35.3208C35.2311 35.3208 34.5815 34.6712 34.5815 33.87V32.9537C34.5815 32.1525 35.2311 31.5029 36.0323 31.5029C36.8335 31.5029 37.4831 32.1525 37.4831 32.9537V33.87C37.4831 34.6712 36.8335 35.3208 36.0323 35.3208Z" fill="#555A66"/>
<path d="M16.3057 19.2358L25.6873 26.96L16.9639 34.6858L16.3057 19.2358Z" fill="white"/>
<path d="M19.4266 22.8672L16.3056 19.2358C16.3056 19.2358 13.3962 25.8458 16.9638 34.6858L19.2772 32.1613C21.6735 29.5482 21.7376 25.5561 19.4266 22.8672Z" fill="#DCE1EB"/>
<path d="M43.6942 19.2358L34.3125 26.96L43.0359 34.6858L43.6942 19.2358Z" fill="#E9EDF5"/>
<path d="M40.5732 22.8672L43.6943 19.2358C43.6943 19.2358 46.6037 25.8458 43.036 34.6858L40.7226 32.1614C38.3264 29.5482 38.2623 25.5561 40.5732 22.8672Z" fill="#BEC3D2"/>
<path d="M30 60.0001C35.5369 60.0001 40.7234 58.5001 45.1753 55.8844L44.7871 52.0369C35.2856 55.7865 24.7144 55.7865 15.2129 52.0369L14.8247 55.8844C19.2767 58.5001 24.4631 60.0001 30 60.0001Z" fill="#7584F2"/>
<path d="M44.7871 52.0369C40.083 53.8934 35.0713 54.8474 30.0142 54.8489V59.9999C35.5456 59.9973 40.7272 58.4978 45.1754 55.8842L44.7871 52.0369Z" fill="#606AEA"/>
<path d="M49.3827 7.10137C47.0263 8.18231 44.0732 9.5629 44.0732 9.5629L32.6518 5.25051C31.659 4.87917 30.591 4.7539 29.5392 4.88541C28.4874 5.01693 27.4832 5.40131 26.6124 6.00567L15.9443 13.6166L16.5946 14.6949C17.3421 15.8959 18.9314 16.2468 20.1152 15.4722L28.9063 9.97739L35.1065 13.4144L28.2271 15.2618C27.7919 15.4788 27.4456 15.8404 27.2475 16.2845C27.0495 16.7287 27.012 17.2279 27.1414 17.6966C27.421 18.7098 28.4075 19.3594 29.4484 19.2157L38.2564 18.9641C39.4374 18.9304 40.6107 18.7612 41.7532 18.4599L55.9216 14.8879C54.1986 11.9408 51.9875 9.30789 49.3827 7.10137Z" fill="#FFDECF"/>
<path d="M49.3828 7.10137C47.0264 8.18231 44.0733 9.56289 44.0733 9.56289L32.6518 5.25051C31.8097 4.93605 30.9118 4.79819 30.0142 4.84551V10.5916L35.1064 13.4145L30.0142 14.782V19.1997L38.2563 18.9643C39.4374 18.9305 40.6107 18.7613 41.7532 18.46L55.9215 14.888C54.1987 11.9409 51.9876 9.30788 49.3828 7.10137Z" fill="#FFBEAA"/>
</svg>
