<svg width="60" height="60" viewBox="0 0 60 60" fill="none" xmlns="http://www.w3.org/2000/svg">
<path d="M60 30C60 46.5688 46.5688 60 30 60C13.4312 60 0 46.5688 0 30C0 13.4312 13.4312 0 30 0C46.5688 0 60 13.4312 60 30Z" fill="#006FD6"/>
<path d="M30.7038 59.9913C45.1375 59.659 57.0517 49.1336 59.5272 35.3325L41.6883 17.4934L17.8845 31.5546L14.0915 27.6563L8.06641 37.354L30.7038 59.9913Z" fill="#0563BA"/>
<path d="M42.7312 25.0513C39.5158 23.5994 36.0282 22.8485 32.5002 22.8485C28.9722 22.8485 25.4846 23.5994 22.2692 25.0513C21.1419 22.5546 20.0143 20.0579 18.8872 17.5613C24.6452 14.9614 31.0274 14.0649 37.2788 14.9777C41.9778 15.6634 44.7193 20.6484 42.7652 24.9766L42.7312 25.0513ZM37.2788 44.3107C31.0274 45.2236 24.6452 44.3269 18.8873 41.7267C20.0143 39.23 21.1418 36.7338 22.2688 34.2373C25.4843 35.6889 28.972 36.4397 32.5001 36.4397C36.0281 36.4397 39.5158 35.6889 42.7313 34.2373C42.7422 34.2619 42.7537 34.2871 42.7652 34.3118C44.7193 38.64 41.9777 43.625 37.2788 44.3107Z" fill="#0F9887"/>
<path d="M33.5016 19.4512C25.8844 19.4512 19.1118 23.0584 14.7919 28.6559C12.9251 26.2376 10.602 24.1905 7.94922 22.6459V37.3539C10.602 35.8089 12.9251 33.7619 14.7918 31.3439C19.1118 36.9409 25.8844 40.5482 33.5016 40.5482C41.7134 40.5482 48.9452 36.3578 53.179 29.9995C48.9452 23.6416 41.7134 19.4512 33.5016 19.4512Z" fill="#91F5F0"/>
<path d="M7.94922 29.989V37.354C10.602 35.809 12.9251 33.762 14.7918 31.344C19.1118 36.941 25.8844 40.5488 33.5016 40.5488C41.7134 40.5488 48.9452 36.3584 53.179 30C53.1762 29.9964 53.1736 29.9925 53.1713 29.9885H7.94922V29.989Z" fill="#00C9C9"/>
<path d="M39.8904 20.3284C38.5808 23.2855 37.8516 26.5576 37.8516 30C37.8516 33.4424 38.5808 36.7145 39.8904 39.6716C45.3947 38.1284 50.0866 34.6435 53.1789 30C50.0866 25.3564 45.3946 21.8715 39.8904 20.3284Z" fill="#00C9C9"/>
<path d="M37.8516 29.989V30C37.8516 33.4424 38.5808 36.7145 39.8904 39.6716C45.3947 38.1285 50.0866 34.6436 53.1789 30L37.8516 29.989Z" fill="#0F9887"/>
<path d="M46.2143 27.6562C46.2143 28.5855 45.4607 29.339 44.5314 29.339C43.6021 29.339 42.8486 28.5855 42.8486 27.6562C42.8486 26.7269 43.6021 25.9734 44.5314 25.9734C45.4607 25.9734 46.2143 26.7269 46.2143 27.6562Z" fill="#1F5F8F"/>
</svg>
