<svg width="60" height="60" viewBox="0 0 60 60" fill="none" xmlns="http://www.w3.org/2000/svg">
<mask id="mask0_5_2372" style="mask-type:luminance" maskUnits="userSpaceOnUse" x="0" y="0" width="60" height="60">
<path d="M0 0.000175476H59.9998V60H0V0.000175476Z" fill="white"/>
</mask>
<g mask="url(#mask0_5_2372)">
<path d="M59.9998 30.0001C59.9998 33.4958 59.4022 36.852 58.3018 39.9715C57.356 42.6586 56.0366 45.1711 54.4077 47.4457C53.8237 48.2611 53.1995 49.0468 52.5373 49.8C49.7295 52.9946 46.2525 55.5867 42.3257 57.3586C41.119 57.9037 39.8772 58.3672 38.6085 58.7461C35.8814 59.5617 32.9917 60 29.9999 60C27.0655 60 24.2308 59.5793 21.5507 58.793C20.3219 58.4338 19.1178 57.995 17.946 57.4793C17.0296 57.0774 16.1367 56.6309 15.2708 56.1422C12.464 54.5561 9.9301 52.5295 7.76599 50.1399V50.1387C7.04178 49.3418 6.36209 48.5063 5.72811 47.6344C4.07569 45.3657 2.75097 42.8757 1.79296 40.2376C0.632809 37.043 0 33.5954 0 30.0001C0 13.4322 13.432 0.000175476 29.9999 0.000175476C46.5678 0.000175476 59.9998 13.4322 59.9998 30.0001Z" fill="#006FD6"/>
<path d="M54.6773 7.79895C52.5726 9.21575 51.8941 9.71145 51.6269 10.704C51.2027 12.2755 51.6432 15.5474 52.4355 19.977C53.0261 23.2782 52.3289 26.2243 50.4199 28.4965C46.1179 33.6165 36.9961 33.7043 36.3961 33.7043H36.3785C35.0836 33.6997 34.0383 32.6461 34.043 31.3524C34.0477 30.061 35.0965 29.0169 36.3867 29.0169H36.3961C38.4797 29.0169 44.4023 28.3805 46.8363 25.4755C47.8453 24.2696 48.1676 22.7403 47.8218 20.802C46.8234 15.2239 46.439 11.9415 47.1 9.4841C47.8359 6.75247 49.7004 5.49857 52.0617 3.91068C53.1351 3.18764 54.5918 3.4724 55.3136 4.54701C56.0367 5.62044 55.7519 7.07708 54.6773 7.79895Z" fill="#595454"/>
<path d="M54.1477 3.64467C53.9612 3.71026 53.784 3.79967 53.6204 3.91068C51.2591 5.49857 49.3945 6.75247 48.6586 9.4841C47.9977 11.9415 48.3821 15.2239 49.3804 20.802C49.7263 22.7403 49.404 24.2696 48.3949 25.4755C45.961 28.3805 40.0384 29.0169 37.9547 29.0169H37.9453C36.6551 29.0169 35.6063 30.061 35.6016 31.3524C35.5969 32.502 36.4219 33.4618 37.5142 33.6645C36.907 33.7008 36.5063 33.7043 36.3962 33.7043H36.3785C35.0836 33.6997 34.0383 32.6461 34.043 31.3524C34.0477 30.061 35.0966 29.0169 36.3867 29.0169H36.3962C38.4798 29.0169 44.4024 28.3805 46.8363 25.4755C47.8454 24.2696 48.1677 22.7403 47.822 20.802C46.8235 15.2239 46.4392 11.9415 47.1 9.4841C47.836 6.75247 49.7005 5.49857 52.0617 3.91068C52.3643 3.70624 52.7108 3.57567 53.0731 3.52947C53.4354 3.48327 53.8035 3.52272 54.1477 3.64467Z" fill="#454045"/>
<path d="M46.4376 28.7842C43.0236 34.2725 36.9383 37.9253 30 37.9253C26.1893 37.9253 22.6356 36.8236 19.6409 34.92C17.1806 33.356 15.1033 31.2591 13.5625 28.7842L15.033 17.949L16.3228 8.44745C16.3228 8.44745 16.6424 6.17906 17.2961 3.99293C17.9029 1.96103 18.7984 0.000133514 19.9922 0.000133514C19.9922 0.000133514 20.8522 0.295563 21.8163 1.04826C22.634 1.68446 23.5263 2.6502 24.032 4.04063C24.032 4.04063 24.7528 3.52981 26.0745 3.09306C27.0439 2.77114 28.3384 2.49071 29.9078 2.48016C29.9388 2.47946 29.9691 2.47946 30 2.47946C33.7646 2.47946 35.9674 4.04063 35.9674 4.04063C36.4729 2.6502 37.3653 1.68446 38.1829 1.04743C39.1472 0.295559 40.0079 0.000133514 40.0079 0.000133514C41.2017 0.000133514 42.0972 1.96103 42.704 3.99293C43.3577 6.17906 43.6773 8.44745 43.6773 8.44745L46.4376 28.7842Z" fill="#595454"/>
<path d="M29.9078 2.4803C26.0231 2.57018 22.7843 8.34481 21.9607 16.434C21.304 22.8781 21.6857 31.0021 19.6409 34.9202C17.1806 33.3562 15.1033 31.2592 13.5625 28.7844L15.0328 17.9491L16.3227 8.44759C16.3227 8.44759 16.6424 6.17919 17.2961 3.99307C17.9029 1.96116 18.7983 0.000267029 19.9922 0.000267029C19.9922 0.000267029 20.8522 0.295696 21.8163 1.04839C22.634 1.6846 23.5263 2.65034 24.0319 4.04065C24.0319 4.04065 24.7528 3.52994 26.0745 3.09307C27.0439 2.77116 28.3383 2.49084 29.9078 2.4803Z" fill="#454045"/>
<path d="M31.297 13.9127L32.5068 11.817C33.0834 10.8186 32.3628 9.57045 31.2098 9.57045H28.79C27.6371 9.57045 26.9164 10.8186 27.493 11.817L28.7028 13.9127C29.2792 14.9113 30.7205 14.9113 31.297 13.9127Z" fill="#211F21"/>
<path d="M25.189 11.5029C25.189 10.1213 24.0688 9.00122 22.6871 9.00122C21.3055 9.00122 20.1855 10.1213 20.1855 11.5029C20.1855 12.8846 21.3055 14.0046 22.6871 14.0046C24.0688 14.0046 25.189 12.8846 25.189 11.5029Z" fill="white"/>
<path d="M24.2373 11.5029C24.2373 10.6469 23.5433 9.95291 22.6871 9.95291C21.8312 9.95291 21.1372 10.6469 21.1372 11.5029C21.1372 12.359 21.8312 13.053 22.6871 13.053C23.5433 13.053 24.2373 12.359 24.2373 11.5029Z" fill="#211F21"/>
<path d="M39.8145 11.5029C39.8145 10.1213 38.6944 9.00122 37.3127 9.00122C35.9311 9.00122 34.811 10.1213 34.811 11.5029C34.811 12.8846 35.9311 14.0046 37.3127 14.0046C38.6944 14.0046 39.8145 12.8846 39.8145 11.5029Z" fill="white"/>
<path d="M38.8628 11.5029C38.8628 10.6469 38.1688 9.95291 37.3127 9.95291C36.4567 9.95291 35.7627 10.6469 35.7627 11.5029C35.7627 12.359 36.4567 13.053 37.3127 13.053C38.1688 13.053 38.8628 12.359 38.8628 11.5029Z" fill="#211F21"/>
<path d="M28.5041 17.1187C27.3739 17.1187 26.4546 16.1993 26.4546 15.0692V14.5353C26.4546 14.3799 26.5163 14.2308 26.6262 14.1209C26.7361 14.0111 26.8851 13.9493 27.0405 13.9493C27.1959 13.9493 27.345 14.0111 27.4548 14.1209C27.5647 14.2308 27.6265 14.3799 27.6265 14.5353V15.0692C27.6265 15.5531 28.0201 15.9468 28.5041 15.9468C28.9879 15.9468 29.3816 15.5531 29.3816 15.0692V12.3047C29.3816 12.1493 29.4433 12.0003 29.5532 11.8904C29.6631 11.7805 29.8121 11.7188 29.9675 11.7188C30.1229 11.7188 30.2719 11.7805 30.3818 11.8904C30.4917 12.0003 30.5534 12.1493 30.5534 12.3047V15.0692C30.5534 16.1993 29.6342 17.1187 28.5041 17.1187Z" fill="#211F21"/>
<path d="M31.4313 17.1187C30.3012 17.1187 29.3818 16.1993 29.3818 15.0692V12.3047C29.3818 12.1493 29.4436 12.0003 29.5535 11.8904C29.6633 11.7805 29.8124 11.7188 29.9678 11.7188C30.1232 11.7188 30.2722 11.7805 30.3821 11.8904C30.492 12.0003 30.5537 12.1493 30.5537 12.3047V15.0692C30.5537 15.5531 30.9473 15.9468 31.4313 15.9468C31.9153 15.9468 32.3089 15.5531 32.3089 15.0692V14.5353C32.3089 14.3799 32.3707 14.2308 32.4806 14.1209C32.5904 14.0111 32.7395 13.9493 32.8949 13.9493C33.0503 13.9493 33.1993 14.0111 33.3092 14.1209C33.4191 14.2308 33.4808 14.3799 33.4808 14.5353V15.0692C33.4808 16.1993 32.5615 17.1187 31.4313 17.1187Z" fill="#211F21"/>
<path d="M20.0651 6.05356C20.6878 5.7825 21.0542 5.1211 20.9349 4.45255C20.7243 3.27294 19.8241 1.82978 19.1062 1.88954C18.0658 1.97615 17.0529 6.48926 18.2574 6.48926C18.915 6.48926 19.5887 6.26098 20.0651 6.05356Z" fill="#211F21"/>
<path d="M39.9347 6.05356C39.312 5.7825 38.9456 5.1211 39.0649 4.45255C39.2755 3.27294 40.1757 1.82978 40.8936 1.88954C41.934 1.97615 42.947 6.48926 41.7424 6.48926C41.0849 6.48926 40.4111 6.26098 39.9347 6.05356Z" fill="#454045"/>
<path d="M54.1744 34.452C54.1768 36.2227 54.1052 38.0016 53.9646 39.7887C53.7056 43.0993 53.2134 46.4379 52.5373 49.8C47.04 56.0531 38.9811 60 29.9998 60C21.1827 60 13.2538 56.1961 7.7658 50.1399C6.68182 44.8465 6.0503 39.6141 6.05967 34.452C15.4792 33.8333 24.8975 33.5778 34.317 33.6868C40.9357 33.7618 47.5558 34.0173 54.1744 34.452Z" fill="#DA4A54"/>
<path d="M54.1744 34.4519C54.1768 36.2226 54.1052 38.0015 53.9646 39.7886C49.7201 39.5906 45.4767 39.4687 41.2334 39.4207C32.7584 39.3222 24.2846 39.5191 15.8096 40.0113C14.203 40.1039 12.9643 41.4726 13.0417 43.0792C13.269 47.7468 14.0706 51.6327 15.2707 56.1421C12.4639 54.556 9.92998 52.5294 7.7658 50.1398V50.1386C6.68182 44.8464 6.0503 39.6128 6.05967 34.4519C15.4792 33.8332 24.8975 33.5777 34.317 33.6867C40.9357 33.7617 47.5558 34.0172 54.1744 34.4519Z" fill="#C32430"/>
<path d="M58.3616 32.7365V32.8291C58.3452 35.3509 56.2816 37.3876 53.7597 37.4298C37.998 37.6923 22.2364 37.6923 6.47364 37.4298C3.95165 37.3876 1.88811 35.3509 1.87158 32.8291V32.7365C1.88811 30.2134 3.95165 28.1779 6.47364 28.1357C8.34969 28.1041 10.2259 28.0771 12.1008 28.0525C14.6684 28.0209 17.2361 27.9951 19.8037 27.9775C25.7145 27.933 31.6243 27.9271 37.5351 27.9588C40.1039 27.9717 42.6726 27.9916 45.2415 28.0197C48.0809 28.0502 50.9203 28.0888 53.7597 28.1357C56.2816 28.1779 58.3452 30.2134 58.3616 32.7365Z" fill="#DA4A54"/>
<path d="M6.9833 32.8301C6.98307 32.7984 6.98307 32.7666 6.9833 32.7349C6.99795 30.4491 8.63166 28.5484 10.7881 28.0726C9.35013 28.0921 7.91225 28.1115 6.47424 28.1354C3.95179 28.1775 1.88824 30.2138 1.87207 32.7365V32.8284C1.88824 35.3512 3.95179 37.3875 6.47424 37.4295C7.91225 37.4535 9.35013 37.4729 10.7881 37.4924C8.63178 37.0167 6.99795 35.1159 6.9833 32.8301Z" fill="#C32430"/>
<path d="M30.1169 59.1357C28.7569 59.1357 27.6543 58.0332 27.6543 56.6732V44.4179C27.6543 43.0579 28.7569 41.9554 30.1169 41.9554C31.4768 41.9554 32.5794 43.0579 32.5794 44.4179V56.6732C32.5794 58.0332 31.4768 59.1357 30.1169 59.1357Z" fill="#C32430"/>
<path d="M21.5506 58.793C20.3218 58.4338 19.1176 57.9949 17.9458 57.4793C17.886 57.3023 17.8451 57.1148 17.8264 56.9191L16.6592 44.7188C16.5303 43.3653 17.5229 42.1629 18.8764 42.0329C18.956 42.0258 19.0345 42.0211 19.113 42.0211C20.3669 42.0211 21.4404 42.9762 21.5623 44.25L22.7283 56.4504C22.8221 57.4242 22.3345 58.3184 21.5506 58.793Z" fill="#C32430"/>
<path d="M43.5747 44.7188L42.4075 56.9191C42.3934 57.0703 42.3653 57.2168 42.3255 57.3586C41.1188 57.9037 39.877 58.3672 38.6083 58.7461C37.8677 58.2609 37.4153 57.3926 37.5055 56.4504L38.6716 44.25C38.7934 42.9762 39.8669 42.0211 41.1209 42.0211C41.1993 42.0211 41.2778 42.0258 41.3575 42.0329C42.711 42.1629 43.7036 43.3653 43.5747 44.7188Z" fill="#C32430"/>
<path d="M12.3411 34.8869L5.72811 47.6345C4.07574 45.3658 2.75102 42.8758 1.79297 40.2377L6.21807 31.71C7.09452 30.0189 9.17705 29.3592 10.8681 30.2369C12.559 31.1135 13.2187 33.1959 12.3411 34.8869Z" fill="#FFD939"/>
<path d="M58.3016 39.9716C57.3559 42.6587 56.0364 45.1712 54.4076 47.4458L47.8919 34.8869C47.0142 33.1958 47.674 31.1134 49.3649 30.2369C51.056 29.3591 53.1384 30.0189 54.0149 31.7099L58.3016 39.9716Z" fill="#FFD939"/>
<path d="M54.6774 7.79903C52.5727 9.21582 51.8942 9.71152 51.627 10.7041C49.2224 11.5408 47.1001 9.48418 47.1001 9.48418C47.836 6.75255 49.7005 5.49865 52.0618 3.91076C53.1352 3.18772 54.5919 3.47248 55.3137 4.54709C56.0368 5.62052 55.752 7.07716 54.6774 7.79903Z" fill="#EFE7E4"/>
<path d="M53.62 3.91069C53.7828 3.80031 53.959 3.7113 54.1444 3.64585C53.4708 3.40995 52.6989 3.4812 52.0613 3.91069C49.7001 5.49858 47.8357 6.75248 47.0996 9.48411C47.0996 9.48411 47.6316 9.99962 48.4648 10.4094C48.5125 10.0977 48.5771 9.78883 48.6582 9.48411C49.3941 6.75248 51.2587 5.49858 53.62 3.91069Z" fill="#E0D8D5"/>
</g>
</svg>
