<svg width="60" height="60" viewBox="0 0 60 60" fill="none" xmlns="http://www.w3.org/2000/svg">
<path d="M14.2777 55.5551C5.71055 50.273 0 40.8034 0 30C0 13.4314 13.4314 0 30 0C46.5686 0 60 13.4314 60 30C60 40.8035 54.2895 50.2731 45.7221 55.5552L14.2777 55.5551Z" fill="#006FD6"/>
<path d="M45.722 55.555C54.2892 50.273 59.9998 40.8033 59.9998 29.9999C59.9998 27.7245 59.7464 25.5083 59.2664 23.3778L45.7221 9.8335L35.623 24.1277L24.514 13.0187L15.1904 27.4099L43.827 56.0464L45.722 55.555Z" fill="#0563BA"/>
<path d="M45.131 23.7201C43.4068 28.0083 40.6618 27.4236 37.4973 26.1512C34.3327 24.8788 31.947 23.4006 33.6713 19.1124C35.3955 14.8243 40.5767 9.35014 43.7412 10.6226C46.9058 11.895 46.8553 19.432 45.131 23.7201Z" fill="#BEC3D2"/>
<path d="M41.1503 28.8383C39.7 28.8383 38.2326 28.3414 36.8416 27.7821C35.1258 27.0922 33.3918 26.2533 32.3308 24.7985C31.1158 23.1327 31.0182 20.9989 32.0404 18.4567C33.0017 16.0659 34.8942 13.3949 36.9792 11.4859C39.6595 9.03186 42.2941 8.14592 44.397 8.99166C46.5003 9.83728 47.7882 12.3002 48.0235 15.9267C48.2067 18.7478 47.7231 21.9853 46.7619 24.376C45.7396 26.9183 44.192 28.3905 42.1621 28.7517C41.8281 28.8102 41.4895 28.8392 41.1503 28.8383ZM42.7329 12.1938C42.025 12.1938 40.8142 12.741 39.3533 14.0788C37.6579 15.631 36.0678 17.8643 35.3022 19.7682C34.4888 21.7912 34.9846 22.471 35.1712 22.727C35.7118 23.4682 36.9819 24.0494 38.153 24.5204C39.3242 24.9914 40.6431 25.4508 41.5464 25.2903C41.8583 25.2348 42.6867 25.0875 43.5001 23.0645C44.2656 21.1605 44.6641 18.4481 44.5152 16.1544C44.3622 13.7953 43.6869 12.4953 43.0854 12.2535C42.9881 12.2143 42.8698 12.1938 42.7329 12.1938Z" fill="#E9EDF5"/>
<path d="M14.8687 23.7201C16.5928 28.0083 19.3378 27.4236 22.5024 26.1512C25.6669 24.8788 28.0526 23.4006 26.3283 19.1124C24.604 14.8243 19.4229 9.35014 16.2584 10.6226C13.0939 11.895 13.1444 19.432 14.8687 23.7201Z" fill="#DCE1EB"/>
<path d="M18.8494 28.8382C18.5107 28.8382 18.1732 28.8112 17.8376 28.7515C15.8076 28.3903 14.2601 26.9181 13.2378 24.3758C12.2765 21.9852 11.7932 18.7476 11.9762 15.9265C12.2115 12.3 13.4995 9.83721 15.6027 8.99146C17.7058 8.14561 20.3402 9.03166 23.0205 11.4857C25.1055 13.3948 26.998 16.0657 27.9593 18.4565C28.9815 20.9988 28.8839 23.1325 27.6689 24.7984C26.6079 26.2532 24.8739 27.0921 23.1581 27.782C21.7673 28.3413 20.2997 28.8382 18.8494 28.8382ZM17.2667 12.1937C17.1299 12.1937 17.0117 12.2141 16.9142 12.2534C16.313 12.4951 15.6375 13.7952 15.4844 16.1543C15.3355 18.448 15.7341 21.1604 16.4996 23.0644C17.313 25.0874 18.1414 25.2348 18.4533 25.2903C19.3564 25.4507 20.6754 24.9912 21.8467 24.5203C23.0178 24.0494 24.2879 23.4681 24.8285 22.7269C25.0152 22.471 25.5109 21.7912 24.6975 19.7681C23.9319 17.8642 22.3418 15.631 20.6464 14.0787C19.1855 12.7411 17.9747 12.1937 17.2667 12.1937Z" fill="white"/>
<path d="M14.2778 55.555C18.8497 58.3737 24.235 59.9999 30.0002 59.9999C35.7653 59.9999 41.1507 58.3737 45.7225 55.555L45.4102 52.4606L44.2673 51.0891L44.7872 46.2872L44.3499 41.9532L31.1339 20.1768H25.1885C21.0204 20.1768 17.5296 23.3331 17.1111 27.48L15.2131 46.2872L15.2928 50.7295L14.5898 52.4629L14.2778 55.555Z" fill="white"/>
<path d="M45.4101 52.4606L44.2672 51.0891L44.7872 46.2872L42.8892 27.48C42.4707 23.3331 38.9798 20.1768 34.8118 20.1768H30.0142V59.9998C35.774 59.9971 41.1542 58.3713 45.7223 55.555L45.4101 52.4606Z" fill="#E9EDF5"/>
<path d="M15.2128 46.2874L14.5898 52.4607C24.457 56.5462 35.5427 56.5462 45.4099 52.4607L44.787 46.2874C35.2855 50.037 24.7143 50.037 15.2128 46.2874Z" fill="#7584F2"/>
<path d="M44.7871 46.2874C40.083 48.1439 35.0713 49.0979 30.0142 49.0995V55.5247C35.2975 55.5231 40.5288 54.482 45.4101 52.4607L44.7871 46.2874Z" fill="#606AEA"/>
<path d="M30 44.8019C27.5646 44.8019 25.5903 42.8276 25.5903 40.3922V38.2161H34.4096V40.3922C34.4096 42.8276 32.4354 44.8019 30 44.8019Z" fill="#DCE1EB"/>
<path d="M30.0142 38.2161V44.8015C32.443 44.7939 34.4096 42.8228 34.4096 40.3922V38.2161H30.0142Z" fill="#BEC3D2"/>
<path d="M30 41.2512C32.4354 41.2512 34.4096 39.8923 34.4096 38.2161C34.4096 36.5398 32.4354 35.1809 30 35.1809C27.5646 35.1809 25.5903 36.5398 25.5903 38.2161C25.5903 39.8923 27.5646 41.2512 30 41.2512Z" fill="#636978"/>
<path d="M34.4096 38.2161C34.4096 36.5431 32.443 35.1864 30.0142 35.1812V41.251C32.443 41.2457 34.4096 39.8892 34.4096 38.2161Z" fill="#414952"/>
<path d="M25.1884 20.1769C21.0204 20.1769 17.5295 23.3332 17.111 27.4801L15.6504 41.9534L26.1551 35.1986C26.9867 34.6638 27.6707 33.9288 28.1444 33.061C28.6182 32.1931 28.8664 31.2203 28.8664 30.2316V20.1768L25.1884 20.1769Z" fill="#CDD2E1"/>
<path d="M34.8118 20.1769C38.9798 20.1769 42.4707 23.3332 42.8892 27.4801L44.3498 41.9534L33.8452 35.1986C33.0135 34.6638 32.3295 33.9288 31.8558 33.061C31.3821 32.1931 31.1338 31.2203 31.1338 30.2316V20.1768L34.8118 20.1769Z" fill="#AFB4C8"/>
<path d="M23.4428 32.8355H23.0418C22.3513 32.8355 21.7915 32.2757 21.7915 31.5852V31.2503C21.7915 30.5598 22.3513 30 23.0418 30H23.4428C24.1333 30 24.6931 30.5598 24.6931 31.2503V31.5852C24.6931 32.2758 24.1333 32.8355 23.4428 32.8355Z" fill="#707789"/>
<path d="M36.9579 32.8355H36.5569C35.8664 32.8355 35.3066 32.2757 35.3066 31.5852V31.2503C35.3066 30.5598 35.8664 30 36.5569 30H36.9579C37.6484 30 38.2082 30.5598 38.2082 31.2503V31.5852C38.2082 32.2758 37.6484 32.8355 36.9579 32.8355Z" fill="#555A66"/>
</svg>
