<svg width="60" height="60" viewBox="0 0 60 60" fill="none" xmlns="http://www.w3.org/2000/svg">
<path d="M56.053 15.1184V18.7008C56.053 25.882 53.1421 32.3824 48.437 37.0875C43.7308 41.7937 37.2304 44.7035 30.0503 44.7035C15.9468 44.7035 4.41436 33.4617 4.05459 19.3641L3.94678 15.1184C9.11592 6.08672 18.8472 0 29.9999 0C41.1526 0 50.8839 6.08672 56.053 15.1184Z" fill="#0563BA"/>
<path d="M56.3742 44.3063L53.1633 46.1766L53.6145 48.504V48.5051C49.7039 53.4879 44.25 57.2028 37.9723 58.929H37.9711L30 55.7403L22.0289 58.929H22.0277C15.75 57.2028 10.2961 53.4879 6.38555 48.5051V48.504L8.29336 46.2504L3.62578 44.3063H3.62461C1.31367 40.0547 0 35.1809 0 30C0 24.5848 1.43555 19.5047 3.94688 15.1184C9.11602 24.15 18.8473 30.2368 30 30.2368C41.1527 30.2368 50.884 24.15 56.0531 15.1184C58.5645 19.5047 60 24.5848 60 30C60 35.1809 58.6863 40.0547 56.3742 44.3063Z" fill="#006FD6"/>
<path d="M37.9724 58.9289C35.4341 59.6273 32.761 59.9999 30.0001 59.9999C27.2392 59.9999 24.5661 59.6273 22.0278 58.9289L24.6763 39.157H35.3239L37.9724 58.9289Z" fill="#FFE000"/>
<path d="M37.9723 58.9289C35.434 59.6273 32.7609 59.9999 30 59.9999V39.157H35.3238L37.9723 58.9289Z" fill="#FEA513"/>
<path d="M26.4123 45.0143H23.5111C18.3327 45.0143 14.1348 40.8164 14.1348 35.638C14.1348 30.4596 18.3327 26.2617 23.5111 26.2617H26.4123V45.0143Z" fill="#FFE000"/>
<path d="M33.5879 45.0143H36.4891C41.6675 45.0143 45.8654 40.8164 45.8654 35.638C45.8654 30.4596 41.6675 26.2617 36.4891 26.2617H33.5879V45.0143Z" fill="#FFBC00"/>
<path d="M30 20.7925L36.7228 33.1865L30 46.4062C24.2801 46.4062 19.4027 42.2589 18.4828 36.614L18.1711 34.705C16.9828 27.4136 22.6113 20.7925 30 20.7925Z" fill="#FFBC00"/>
<path d="M41.9883 32.7526C41.9883 33.396 41.9355 34.0476 41.8289 34.705L41.5172 36.614C40.5973 42.2589 35.7199 46.4062 30 46.4062V20.7925C36.7219 20.7925 41.9883 26.2733 41.9883 32.7526Z" fill="#FB8904"/>
<path d="M30 9.21436L34.3089 23.4256L30 41.4444L23.1105 35.0097C21.8953 33.8744 20.9264 32.5014 20.2639 30.9759C19.6015 29.4505 19.2597 27.8052 19.2598 26.1421V19.9546C19.2598 14.0237 24.068 9.21436 30 9.21436Z" fill="#FFE000"/>
<path d="M40.7402 19.9546V26.1421C40.7402 29.5042 39.3457 32.7151 36.8895 35.0097L30 41.4444V9.21436C35.932 9.21436 40.7402 14.0237 40.7402 19.9546Z" fill="#FFBC00"/>
<path d="M30 22.3518L31.4011 24.9511L30 28.1977L25.0898 23.4258L30 22.3518Z" fill="#FB8904"/>
<path d="M34.9102 23.4258L30 28.1977V22.3518L34.9102 23.4258Z" fill="#EB650A"/>
<path d="M30 19.5293L31.0607 21.8605L30 23.4258H25.0898L30 19.5293Z" fill="#FFBC00"/>
<path d="M25.2032 21.8606C26.2906 21.8606 27.1721 20.9791 27.1721 19.8917C27.1721 18.8043 26.2906 17.9229 25.2032 17.9229C24.1159 17.9229 23.2344 18.8043 23.2344 19.8917C23.2344 20.9791 24.1159 21.8606 25.2032 21.8606Z" fill="#59201E"/>
<path d="M34.797 21.8606C35.8844 21.8606 36.7659 20.9791 36.7659 19.8917C36.7659 18.8043 35.8844 17.9229 34.797 17.9229C33.7096 17.9229 32.8281 18.8043 32.8281 19.8917C32.8281 20.9791 33.7096 21.8606 34.797 21.8606Z" fill="#42120C"/>
<path d="M56.3744 44.3062C55.8236 45.321 55.2154 46.2995 54.5545 47.2394C54.2521 47.6694 53.9381 48.0913 53.6147 48.5038H6.38574C6.0623 48.0913 5.74824 47.6694 5.4459 47.2394C4.7832 46.2975 4.17554 45.3182 3.62598 44.3062H56.3744Z" fill="#AF3C25"/>
<path d="M56.3742 44.3062C55.8234 45.321 55.2152 46.2995 54.5543 47.2394C54.252 47.6694 53.9379 48.0913 53.6145 48.5038H30V44.3062H56.3742Z" fill="#8E2A1A"/>
<path d="M21.3226 46.6712C21.0831 46.6712 20.8534 46.576 20.684 46.4066C20.5146 46.2373 20.4195 46.0076 20.4194 45.768V42.6331C20.4194 42.3936 20.5146 42.1639 20.684 41.9945C20.8533 41.8251 21.0831 41.73 21.3226 41.73C21.5621 41.73 21.7919 41.8251 21.9612 41.9945C22.1306 42.1639 22.2258 42.3936 22.2258 42.6331L23.1289 44.2005L22.2258 45.7679C22.2258 45.8865 22.2024 46.004 22.157 46.1136C22.1117 46.2232 22.0451 46.3227 21.9613 46.4066C21.8774 46.4905 21.7778 46.557 21.6683 46.6024C21.5587 46.6478 21.4412 46.6712 21.3226 46.6712Z" fill="#813939"/>
<path d="M23.1292 46.6712C22.8897 46.6712 22.66 46.576 22.4906 46.4066C22.3213 46.2373 22.2261 46.0076 22.2261 45.768V42.6331C22.2261 42.5145 22.2494 42.3971 22.2948 42.2875C22.3402 42.1779 22.4067 42.0784 22.4906 41.9945C22.5745 41.9106 22.674 41.8441 22.7836 41.7987C22.8932 41.7533 23.0106 41.73 23.1292 41.73C23.2478 41.73 23.3653 41.7533 23.4749 41.7987C23.5844 41.8441 23.684 41.9106 23.7679 41.9945C23.8517 42.0784 23.9183 42.1779 23.9637 42.2875C24.009 42.3971 24.0324 42.5145 24.0324 42.6331L24.9356 44.2005L24.0324 45.7679C24.0324 45.8865 24.0091 46.004 23.9637 46.1136C23.9183 46.2232 23.8518 46.3227 23.7679 46.4066C23.684 46.4905 23.5845 46.557 23.4749 46.6024C23.3653 46.6478 23.2479 46.6712 23.1292 46.6712Z" fill="#59201E"/>
<path d="M24.9356 46.6712C24.696 46.6712 24.4663 46.576 24.2969 46.4067C24.1276 46.2373 24.0324 46.0076 24.0324 45.768V42.6331C24.0324 42.3936 24.1276 42.1639 24.2969 41.9945C24.4663 41.8251 24.696 41.73 24.9356 41.73C25.1751 41.73 25.4048 41.8251 25.5742 41.9945C25.7436 42.1639 25.8387 42.3936 25.8387 42.6331V45.768C25.8387 46.0076 25.7436 46.2373 25.5742 46.4067C25.4048 46.576 25.1751 46.6712 24.9356 46.6712ZM23.1292 49.5786C22.8897 49.5786 22.66 49.4835 22.4906 49.3141C22.3212 49.1447 22.2261 48.915 22.2261 48.6754V47.0001C22.2261 46.8815 22.2494 46.7641 22.2948 46.6545C22.3402 46.5449 22.4067 46.4454 22.4906 46.3615C22.5745 46.2776 22.674 46.2111 22.7836 46.1657C22.8932 46.1203 23.0106 46.097 23.1292 46.097C23.2478 46.097 23.3653 46.1203 23.4749 46.1657C23.5844 46.2111 23.684 46.2776 23.7679 46.3615C23.8517 46.4454 23.9183 46.5449 23.9637 46.6545C24.009 46.7641 24.0324 46.8815 24.0324 47.0001V48.6754C24.0324 48.7941 24.0091 48.9115 23.9637 49.0211C23.9183 49.1307 23.8518 49.2302 23.7679 49.3141C23.684 49.398 23.5845 49.4645 23.4749 49.5099C23.3653 49.5553 23.2478 49.5786 23.1292 49.5786Z" fill="#813939"/>
<path d="M35.0648 46.6712C34.8253 46.6712 34.5956 46.576 34.4262 46.4066C34.2568 46.2373 34.1617 46.0076 34.1616 45.768V42.6331C34.1616 42.5145 34.185 42.3971 34.2304 42.2875C34.2758 42.1779 34.3423 42.0784 34.4262 41.9945C34.51 41.9106 34.6096 41.8441 34.7192 41.7987C34.8287 41.7533 34.9462 41.73 35.0648 41.73C35.1834 41.73 35.3008 41.7533 35.4104 41.7987C35.52 41.8441 35.6196 41.9106 35.7034 41.9945C35.7873 42.0784 35.8538 42.1779 35.8992 42.2875C35.9446 42.3971 35.9679 42.5145 35.9679 42.6331L36.6447 44.2005L35.9679 45.7679C35.968 45.8865 35.9446 46.004 35.8992 46.1136C35.8539 46.2232 35.7873 46.3227 35.7035 46.4066C35.6196 46.4905 35.52 46.557 35.4104 46.6024C35.3009 46.6478 35.1834 46.6712 35.0648 46.6712Z" fill="#59201E"/>
<path d="M36.8709 46.6712C36.6314 46.6712 36.4017 46.576 36.2323 46.4066C36.063 46.2373 35.9678 46.0076 35.9678 45.768V42.6331C35.9678 42.3936 36.0629 42.1639 36.2323 41.9945C36.4017 41.8251 36.6314 41.73 36.8709 41.73C37.1105 41.73 37.3402 41.8251 37.5096 41.9945C37.6789 42.1639 37.7741 42.3936 37.7741 42.6331L38.6773 43.9781L37.7741 45.768C37.7741 46.0076 37.6789 46.2373 37.5096 46.4067C37.3402 46.576 37.1105 46.6712 36.8709 46.6712Z" fill="#42120C"/>
<path d="M38.6773 46.6712C38.4377 46.6711 38.208 46.576 38.0387 46.4066C37.8693 46.2372 37.7741 46.0075 37.7741 45.768V42.6331C37.7779 42.3961 37.8748 42.1701 38.0437 42.0038C38.2127 41.8376 38.4402 41.7444 38.6773 41.7444C38.9143 41.7444 39.1419 41.8376 39.3108 42.0038C39.4798 42.1701 39.5766 42.3961 39.5804 42.6331V45.768C39.5804 46.0075 39.4852 46.2372 39.3159 46.4066C39.1465 46.576 38.9168 46.6711 38.6773 46.6712ZM36.8709 49.5786C36.6314 49.5786 36.4017 49.4834 36.2323 49.3141C36.0629 49.1447 35.9678 48.915 35.9678 48.6754V47.0001C35.9678 46.7606 36.0629 46.5309 36.2323 46.3615C36.4017 46.1921 36.6314 46.0969 36.8709 46.0969C37.1105 46.0969 37.3402 46.1921 37.5096 46.3615C37.6789 46.5309 37.7741 46.7606 37.7741 47.0001V48.6754C37.7741 48.915 37.6789 49.1447 37.5096 49.3141C37.3402 49.4834 37.1105 49.5786 36.8709 49.5786Z" fill="#59201E"/>
<path d="M34.9102 23.4258H30V19.5293L34.9102 23.4258Z" fill="#FB8904"/>
</svg>
