<svg width="60" height="65" viewBox="0 0 60 65" fill="none" xmlns="http://www.w3.org/2000/svg">
<path d="M30 64.4584C46.5685 64.4584 60 50.0778 60 32.3385C60 14.5991 46.5685 0.218506 30 0.218506C13.4315 0.218506 0 14.5991 0 32.3385C0 50.0778 13.4315 64.4584 30 64.4584Z" fill="#006FD6"/>
<path d="M48.0615 24.2524L47.8257 24.5048L33.7781 9.46467L33.2237 10.0583L32.2545 9.02051L29.3426 12.1382L27.1495 9.79013L26.2129 10.7929L32.3836 17.3997L22.113 28.396L17.287 23.2289L6.77637 34.4824L21.3294 50.0641L18.1478 53.4705L28.3656 64.4104C28.9069 64.4416 29.4517 64.4584 30.0001 64.4584C45.1758 64.4584 57.7174 52.3934 59.7193 36.734L48.0615 24.2524Z" fill="#0563BA"/>
<path d="M18.1548 53.4771L18.7697 54.1354C19.9729 55.4236 21.9234 55.4236 23.1266 54.1354L26.7486 50.2575L21.7768 44.9343L18.1548 48.8123C16.9517 50.1005 16.9517 52.189 18.1548 53.4771Z" fill="#2EC6B0"/>
<path d="M41.8448 53.4771L41.2299 54.1354C40.0268 55.4236 38.0762 55.4236 36.873 54.1354L33.251 50.2575L38.2228 44.9343L41.8448 48.8123C43.048 50.1005 43.048 52.189 41.8448 53.4771Z" fill="#29AAA1"/>
<path d="M22.4026 21.1132C20.6529 20.5524 19.2082 20.5632 18.1366 20.7252C12.9682 21.5064 8.61586 26.9919 6.77637 34.4825C7.8109 34.6503 10.1104 34.8709 12.7322 33.7739C15.5084 32.6124 17.1019 30.6198 17.7348 29.7298L22.4026 21.1132Z" fill="#2EC6B0"/>
<path d="M37.5977 21.1132C39.3474 20.5524 40.7921 20.5632 41.8636 20.7252C47.0321 21.5064 51.3844 26.9919 53.2239 34.4825C52.1894 34.6503 49.8899 34.8709 47.2681 33.7739C44.4919 32.6124 42.8984 30.6198 42.2655 29.7298L37.5977 21.1132Z" fill="#29AAA1"/>
<path d="M25.8985 12.8521C25.9748 12.1955 26.1522 11.557 26.4234 10.9625C26.3152 10.9002 26.2205 10.8143 26.1452 10.7104C26.07 10.6065 26.0159 10.4869 25.9865 10.3592C25.9571 10.2315 25.953 10.0987 25.9745 9.96924C25.996 9.83978 26.0425 9.71657 26.1112 9.60757C26.1799 9.49857 26.2692 9.40619 26.3732 9.33638C26.4773 9.26658 26.5939 9.2209 26.7155 9.20229C26.837 9.18369 26.9609 9.19256 27.0791 9.22836C27.1972 9.26415 27.3071 9.32606 27.4016 9.41009C28.5174 8.0588 29.8525 7.38779 30.0001 7.31665L30.9307 13.627L30.0001 19.9373C27.733 19.9373 25.5098 16.2025 25.8985 12.8521Z" fill="#2EC6B0"/>
<path d="M34.1016 12.8521C34.0252 12.1955 33.8479 11.557 33.5767 10.9625C33.6848 10.9002 33.7796 10.8143 33.8548 10.7104C33.9301 10.6065 33.9842 10.4869 34.0136 10.3592C34.043 10.2315 34.0471 10.0987 34.0256 9.96924C34.0041 9.83978 33.9575 9.71657 33.8888 9.60757C33.8202 9.49857 33.7309 9.40619 33.6268 9.33638C33.5228 9.26658 33.4062 9.2209 33.2846 9.20229C33.163 9.18369 33.0392 9.19256 32.921 9.22836C32.8028 9.26415 32.693 9.32606 32.5985 9.41009C31.4827 8.0588 30.1475 7.38779 30 7.31665V19.9373C32.2671 19.9373 34.4903 16.2025 34.1016 12.8521Z" fill="#29AAA1"/>
<path d="M17.4588 30.9753C18.6388 25.1435 23.3443 17.4612 30 17.4612L31.8267 32.6606L30 55.1018C20.6439 49.5634 15.7068 39.6337 17.4588 30.9753Z" fill="#4DD6BC"/>
<path d="M42.5412 30.9753C41.3612 25.1435 36.6557 17.4612 30 17.4612V55.1018C39.3561 49.5634 44.2932 39.6337 42.5412 30.9753Z" fill="#2EC6B0"/>
<path d="M19.739 31.6826C20.7045 26.6285 24.5544 19.9705 30 19.9705L31.2752 32.8532L30 52.5923C22.3449 47.7924 18.3056 39.1866 19.739 31.6826Z" fill="#2EC6B0"/>
<path d="M40.2609 31.6826C39.2954 26.6285 35.4456 19.9705 30 19.9705V52.5923C37.655 47.7924 41.6944 39.1866 40.2609 31.6826Z" fill="#29AAA1"/>
</svg>
