<svg width="60" height="60" viewBox="0 0 60 60" fill="none" xmlns="http://www.w3.org/2000/svg">
<mask id="mask0_5_2445" style="mask-type:luminance" maskUnits="userSpaceOnUse" x="0" y="0" width="60" height="60">
<path d="M0 0.000171661H59.9998V60H0V0.000171661Z" fill="white"/>
</mask>
<g mask="url(#mask0_5_2445)">
<path d="M59.9998 30.0001C59.9998 46.5686 46.5684 60 29.9999 60C13.4314 60 0 46.5686 0 30.0001C0 13.4316 13.4314 0.000171661 29.9999 0.000171661C46.5684 0.000171661 59.9998 13.4316 59.9998 30.0001Z" fill="#006FD6"/>
<path d="M55.4919 45.8239C52.6876 50.3332 48.7196 54.0422 44.0099 56.5348C39.8275 58.7473 35.0603 60 30.0001 60C24.94 60 20.1728 58.7473 15.9916 56.5336C15.2885 56.1621 14.6029 55.7637 13.935 55.3395C10.1196 52.9139 6.89797 49.6619 4.5083 45.8239L6.78888 29.0204L7.63263 22.8048L8.78927 14.2853C8.78927 14.2853 9.28497 10.7673 10.2986 7.37711C11.2396 4.22595 12.6282 1.18494 14.4799 1.18494C14.4799 1.18494 15.8135 1.64314 17.3088 2.81033C18.5767 3.79704 19.9607 5.29469 20.7447 7.45094C20.7447 7.45094 21.8627 6.65875 23.9123 5.98141C25.4158 5.4822 27.4231 5.04743 29.8572 5.03102C29.9052 5.02985 29.9521 5.02985 30.0001 5.02985C35.8384 5.02985 39.2543 7.45094 39.2543 7.45094C40.0384 5.29469 41.4223 3.79704 42.6903 2.80915C44.1856 1.64314 45.5204 1.18494 45.5204 1.18494C47.372 1.18494 48.7606 4.22595 49.7016 7.37711C50.7153 10.7673 51.211 14.2853 51.211 14.2853L55.4919 45.8239Z" fill="#EFE7E4"/>
<path d="M29.8572 5.03091C23.8326 5.17036 18.8098 14.1258 17.5326 26.6707C16.5142 36.6644 17.1059 49.2632 13.935 55.3394C10.1196 52.9137 6.89797 49.6618 4.5083 45.8238L6.78888 29.0203L8.78927 14.2852C8.78927 14.2852 9.28497 10.7672 10.2986 7.377C11.2396 4.22583 12.6282 1.18483 14.4799 1.18483C14.4799 1.18483 15.8135 1.64303 17.3088 2.81021C18.5767 3.79693 19.9607 5.29458 20.7447 7.45082C20.7447 7.45082 21.8627 6.65864 23.9123 5.9813C25.4158 5.48208 27.4231 5.04732 29.8572 5.03091Z" fill="#E0D8D5"/>
<path d="M49.1728 25.5021C49.1728 16.9362 40.5887 9.99229 29.9998 9.99229C19.4107 9.99229 10.8267 16.9362 10.8267 25.5021C10.8267 34.0679 19.4107 41.012 29.9998 41.012C40.5887 41.012 49.1728 34.0679 49.1728 25.5021Z" fill="#9B9595"/>
<path d="M44.0095 56.5348C39.8271 58.7473 35.0599 60 29.9998 60C24.9396 60 20.1724 58.7473 15.9912 56.5336C19.4904 53.5043 24.472 51.6117 29.9998 51.6117C35.5287 51.6117 40.5103 53.5043 44.0095 56.5348Z" fill="#E0D8D5"/>
<path d="M10.8271 25.5022C10.8271 29.9586 13.1513 33.9753 16.8717 36.8044C17.0445 33.3594 17.2055 29.8808 17.5326 26.6709C18.1547 20.5604 19.6658 15.3022 21.7481 11.4991C15.2896 13.9941 10.8271 19.3263 10.8271 25.5022Z" fill="#736E6E"/>
<path d="M31.7172 23.6285L33.3189 20.8542C34.0822 19.5323 33.1283 17.88 31.6019 17.88H28.3984C26.872 17.88 25.918 19.5323 26.6812 20.8542L28.2829 23.6285C29.0462 24.9503 30.9541 24.9503 31.7172 23.6285Z" fill="#454045"/>
<path d="M24.5017 20.2802C24.5017 17.8597 22.5395 15.8975 20.119 15.8975C17.6985 15.8975 15.7363 17.8597 15.7363 20.2802C15.7363 22.7007 17.6985 24.6628 20.119 24.6628C22.5395 24.6628 24.5017 22.7007 24.5017 20.2802Z" fill="#93D8E4"/>
<path d="M22.8342 20.2801C22.8342 18.7804 21.6184 17.5647 20.1188 17.5647C18.619 17.5647 17.4033 18.7804 17.4033 20.2801C17.4033 21.7799 18.619 22.9956 20.1188 22.9956C21.6184 22.9956 22.8342 21.7799 22.8342 20.2801Z" fill="#454045"/>
<path d="M44.2639 20.2802C44.2639 17.8597 42.3017 15.8975 39.8812 15.8975C37.4607 15.8975 35.4985 17.8597 35.4985 20.2802C35.4985 22.7007 37.4607 24.6628 39.8812 24.6628C42.3017 24.6628 44.2639 22.7007 44.2639 20.2802Z" fill="#93D8E4"/>
<path d="M42.5964 20.2801C42.5964 18.7804 41.3806 17.5647 39.881 17.5647C38.3812 17.5647 37.1655 18.7804 37.1655 20.2801C37.1655 21.7799 38.3812 22.9956 39.881 22.9956C41.3806 22.9956 42.5964 21.7799 42.5964 20.2801Z" fill="#454045"/>
<path d="M20.7444 7.45083C16.76 9.6809 10.8186 12.2356 7.63232 22.8047L8.78896 14.2852C8.78896 14.2852 9.28466 10.7672 10.2983 7.377C11.2393 4.22584 12.628 1.18483 14.4796 1.18483C14.4796 1.18483 15.8132 1.64303 17.3085 2.81022C18.5764 3.79693 19.9604 5.29458 20.7444 7.45083Z" fill="#9B9595"/>
<path d="M39.2554 7.45083C43.2397 9.6809 49.1811 12.2356 52.3674 22.8047L51.2108 14.2852C51.2108 14.2852 50.7151 10.7672 49.7014 7.377C48.7604 4.22584 47.3718 1.18483 45.5202 1.18483C45.5202 1.18483 44.1866 1.64303 42.6913 2.81022C41.4233 3.79693 40.0394 5.29458 39.2554 7.45083Z" fill="#9B9595"/>
<path d="M14.593 10.5727C15.5588 10.1522 16.127 9.12674 15.9419 8.08987C15.6154 6.26058 14.2192 4.02242 13.1061 4.11512C11.4925 4.24942 9.92149 11.2485 11.7898 11.2485C12.8093 11.2485 13.8542 10.8944 14.593 10.5727Z" fill="#595454"/>
<path d="M45.4066 10.5727C44.4409 10.1522 43.8726 9.12674 44.0578 8.08987C44.3843 6.26058 45.7804 4.02242 46.8936 4.11512C48.5071 4.24942 50.0781 11.2485 48.2098 11.2485C47.1903 11.2485 46.1455 10.8944 45.4066 10.5727Z" fill="#595454"/>
</g>
</svg>
