<svg width="60" height="60" viewBox="0 0 60 60" fill="none" xmlns="http://www.w3.org/2000/svg">
<path d="M30 60C46.5685 60 60 46.5685 60 30C60 13.4315 46.5685 0 30 0C13.4315 0 0 13.4315 0 30C0 46.5685 13.4315 60 30 60Z" fill="#006FD6"/>
<path d="M27.2604 17.2704L22.7252 12.746L10.124 25.6674L12.6116 28.155L15.0007 46.8222L28.0619 59.936C28.7029 59.9769 29.3486 60 29.9998 60C46.5684 60 59.9998 46.5685 59.9998 30C59.9998 26.7267 59.4737 23.5767 58.5046 20.6277L50.0901 12.2131L27.2604 17.2704Z" fill="#0563BA"/>
<path d="M43.9474 26.0273C47.9148 26.0273 51.1311 22.8111 51.1311 18.8436C51.1311 14.8762 47.9148 11.6599 43.9474 11.6599C39.9799 11.6599 36.7637 14.8762 36.7637 18.8436C36.7637 22.8111 39.9799 26.0273 43.9474 26.0273Z" fill="#9B4E1B"/>
<path d="M43.9473 27.8871C38.9607 27.8871 34.9038 23.8302 34.9038 18.8437C34.9038 13.8571 38.9607 9.80029 43.9473 9.80029C48.9339 9.80029 52.9908 13.8571 52.9908 18.8437C52.9908 23.8302 48.9339 27.8871 43.9473 27.8871ZM43.9473 13.5197C41.0116 13.5197 38.6233 15.908 38.6233 18.8437C38.6233 21.7793 41.0116 24.1676 43.9473 24.1676C46.883 24.1676 49.2712 21.7793 49.2712 18.8437C49.2712 15.9081 46.883 13.5197 43.9473 13.5197Z" fill="#D66A21"/>
<path d="M16.0524 26.0273C20.0198 26.0273 23.2361 22.8111 23.2361 18.8436C23.2361 14.8762 20.0198 11.6599 16.0524 11.6599C12.0849 11.6599 8.86865 14.8762 8.86865 18.8436C8.86865 22.8111 12.0849 26.0273 16.0524 26.0273Z" fill="#D66A21"/>
<path d="M16.0528 27.8871C11.0662 27.8871 7.00928 23.8302 7.00928 18.8437C7.00928 13.8571 11.0662 9.80029 16.0528 9.80029C21.0393 9.80029 25.0962 13.8571 25.0962 18.8437C25.0962 23.8302 21.0393 27.8871 16.0528 27.8871ZM16.0528 13.5197C13.1171 13.5197 10.7288 15.908 10.7288 18.8437C10.7288 21.7793 13.1171 24.1676 16.0528 24.1676C18.9884 24.1676 21.3767 21.7793 21.3767 18.8437C21.3767 15.9081 18.9884 13.5197 16.0528 13.5197Z" fill="#F99830"/>
<path d="M27.7209 14.4517L12.8628 44.3394C15.8058 48.7624 21.3176 51.3638 29.9999 51.3638L38.5686 38.9486L29.9999 14.3179C29.2346 14.3179 28.4732 14.3633 27.7209 14.4517Z" fill="white"/>
<path d="M32.2791 14.4517C31.5226 14.3627 30.7616 14.318 30 14.3179V51.3638C38.6823 51.3638 44.1941 48.7624 47.1371 44.3394L32.2791 14.4517Z" fill="#D3D3D3"/>
<path d="M12.863 44.3394C11.0218 41.5744 10.1838 38.0986 10.2019 34.1005C10.25 23.3549 18.3332 15.5509 27.7211 14.4517C28.1019 19.5737 28.8009 41.6471 12.863 44.3394Z" fill="#F99830"/>
<path d="M49.7983 34.1005C49.8164 38.0986 48.9784 41.5744 47.1372 44.3394C31.1993 41.6471 31.8984 19.5737 32.2791 14.4517C41.667 15.551 49.7502 23.3549 49.7983 34.1005Z" fill="#D66A21"/>
<path d="M24.2652 28.5734C24.4981 27.1353 23.5211 25.7805 22.0829 25.5476C20.6447 25.3147 19.29 26.2917 19.057 27.7299C18.8241 29.1681 19.8011 30.5228 21.2393 30.7558C22.6775 30.9887 24.0322 30.0116 24.2652 28.5734Z" fill="#7F5F52"/>
<path d="M40.564 28.5752C40.7969 27.137 39.8199 25.7823 38.3817 25.5493C36.9435 25.3164 35.5888 26.2934 35.3559 27.7316C35.1229 29.1698 36.1 30.5245 37.5382 30.7575C38.9763 30.9904 40.3311 30.0133 40.564 28.5752Z" fill="#4C3A3A"/>
<path d="M28.2422 39.3132V45.4532H30L31.3946 42.9078L30 39.3132H28.2422Z" fill="#7F5F52"/>
<path d="M30 39.3132H31.7578V45.4532H30V39.3132Z" fill="#4C3A3A"/>
<path d="M30 35.2102C27.8168 35.2102 25.4858 36.072 26.478 38.5784C27.2756 40.593 29.2991 41.0337 30 41.0337L32.5954 37.8521L30 35.2102Z" fill="#EA285B"/>
<path d="M30 35.2102C32.1832 35.2102 34.5142 36.072 33.522 38.5784C32.7244 40.593 30.7009 41.0337 30 41.0337V35.2102Z" fill="#B2145C"/>
</svg>
