<svg width="26" height="22" viewBox="0 0 26 22" fill="none" xmlns="http://www.w3.org/2000/svg">
<path d="M25.768 3.06398C24.808 3.47998 23.816 3.76798 22.76 3.89598C23.848 3.25598 24.68 2.23198 25.064 0.983976C24.04 1.59198 22.92 2.00798 21.736 2.26398C20.776 1.23998 19.4 0.599976 17.896 0.599976C14.984 0.599976 12.648 2.96798 12.648 5.84798C12.648 6.26398 12.68 6.64797 12.776 7.03197C8.42397 6.83997 4.58397 4.72798 1.99197 1.55998C0.135969 4.88798 2.21597 7.63998 3.59197 8.56798C2.75997 8.56798 1.92797 8.31198 1.22397 7.92798C1.22397 10.52 3.04797 12.664 5.41597 13.144C4.90397 13.304 3.75197 13.4 3.04797 13.24C3.71997 15.32 5.67197 16.856 7.94397 16.888C6.15197 18.296 3.52797 19.416 0.167969 19.064C2.50397 20.568 5.25597 21.432 8.23197 21.432C17.896 21.432 23.144 13.432 23.144 6.51998C23.144 6.29598 23.144 6.07198 23.112 5.84798C24.2 5.04798 25.096 4.11998 25.768 3.06398Z" fill="#006FD6"/>
</svg>
