<svg width="32" height="20" viewBox="0 0 32 20" fill="none" xmlns="http://www.w3.org/2000/svg">
<path fill-rule="evenodd" clip-rule="evenodd" d="M27.5406 12.4598C28.602 13.4961 29.7224 14.4712 30.6744 15.612C31.095 16.119 31.4931 16.6422 31.7977 17.2305C32.2293 18.0669 31.8384 18.9873 31.0885 19.0372L26.4266 19.0351C25.2242 19.1349 24.2651 18.6509 23.4585 17.8288C22.8131 17.1713 22.2154 16.4716 21.5948 15.792C21.3403 15.5143 21.074 15.2529 20.7559 15.0463C20.1195 14.6332 19.5671 14.7597 19.2034 15.4234C18.833 16.0985 18.749 16.846 18.7126 17.5984C18.6627 18.6962 18.3308 18.9848 17.2281 19.035C14.8716 19.1462 12.6351 18.7896 10.5574 17.6008C8.72568 16.5528 7.30526 15.0733 6.06893 13.3983C3.66178 10.1368 1.81839 6.55297 0.161611 2.8687C-0.211316 2.03863 0.0614137 1.59305 0.977277 1.57728C2.49811 1.54774 4.01873 1.54984 5.54135 1.57518C6.15946 1.58422 6.56866 1.93875 6.80732 2.52269C7.63014 4.54587 8.63694 6.47075 9.90071 8.25496C10.2373 8.72997 10.5804 9.20499 11.0691 9.53933C11.6097 9.90952 12.0214 9.78683 12.2757 9.18459C12.4371 8.80273 12.5077 8.39143 12.5441 7.98244C12.6646 6.57537 12.6805 5.17071 12.4691 3.76858C12.3394 2.89352 11.8465 2.32703 10.9733 2.16143C10.5278 2.07701 10.5941 1.9112 10.8098 1.65687C11.1846 1.21824 11.537 0.94519 12.2395 0.94519H17.5081C18.3376 1.10889 18.5218 1.4815 18.6353 2.31609L18.6398 8.16843C18.6308 8.49152 18.8012 9.45028 19.3832 9.66413C19.8489 9.81637 20.1559 9.44376 20.4354 9.14842C21.6968 7.80959 22.5971 6.22736 23.4015 4.58898C23.7584 3.86857 24.0653 3.1204 24.3627 2.37287C24.5831 1.81816 24.9289 1.54522 25.5538 1.55731L30.6245 1.56183C30.7748 1.56183 30.927 1.56404 31.0726 1.58895C31.927 1.73457 32.1612 2.10214 31.8973 2.93652C31.4815 4.2456 30.6724 5.33652 29.8814 6.43248C29.0357 7.60257 28.1313 8.7326 27.2927 9.90963C26.5223 10.9845 26.5835 11.5262 27.5406 12.4598Z" fill="#006FD6"/>
</svg>
